G04 #@! TF.GenerationSoftware,KiCad,Pcbnew,10.0.0*
G04 #@! TF.CreationDate,2026-03-31T13:19:52+02:00*
G04 #@! TF.ProjectId,ovrdrive,6f767264-7269-4766-952e-6b696361645f,rev?*
G04 #@! TF.SameCoordinates,Original*
G04 #@! TF.FileFunction,Copper,L4,Bot*
G04 #@! TF.FilePolarity,Positive*
%FSLAX46Y46*%
G04 Gerber Fmt 4.6, Leading zero omitted, Abs format (unit mm)*
G04 Created by KiCad (PCBNEW 10.0.0) date 2026-03-31 13:19:52*
%MOMM*%
%LPD*%
G01*
G04 APERTURE LIST*
G04 Aperture macros list*
%AMRoundRect*
0 Rectangle with rounded corners*
0 $1 Rounding radius*
0 $2 $3 $4 $5 $6 $7 $8 $9 X,Y pos of 4 corners*
0 Add a 4 corners polygon primitive as box body*
4,1,4,$2,$3,$4,$5,$6,$7,$8,$9,$2,$3,0*
0 Add four circle primitives for the rounded corners*
1,1,$1+$1,$2,$3*
1,1,$1+$1,$4,$5*
1,1,$1+$1,$6,$7*
1,1,$1+$1,$8,$9*
0 Add four rect primitives between the rounded corners*
20,1,$1+$1,$2,$3,$4,$5,0*
20,1,$1+$1,$4,$5,$6,$7,0*
20,1,$1+$1,$6,$7,$8,$9,0*
20,1,$1+$1,$8,$9,$2,$3,0*%
G04 Aperture macros list end*
G04 #@! TA.AperFunction,SMDPad,CuDef*
%ADD10R,1.200000X0.700000*%
G04 #@! TD*
G04 #@! TA.AperFunction,SMDPad,CuDef*
%ADD11R,0.800000X1.000000*%
G04 #@! TD*
G04 #@! TA.AperFunction,SMDPad,CuDef*
%ADD12R,2.800000X1.000000*%
G04 #@! TD*
G04 #@! TA.AperFunction,SMDPad,CuDef*
%ADD13R,1.200000X1.000000*%
G04 #@! TD*
G04 #@! TA.AperFunction,SMDPad,CuDef*
%ADD14R,1.900000X1.300000*%
G04 #@! TD*
G04 #@! TA.AperFunction,SMDPad,CuDef*
%ADD15R,1.000000X1.000000*%
G04 #@! TD*
G04 #@! TA.AperFunction,SMDPad,CuDef*
%ADD16C,0.500000*%
G04 #@! TD*
G04 #@! TA.AperFunction,SMDPad,CuDef*
%ADD17RoundRect,0.140000X-0.140000X-0.170000X0.140000X-0.170000X0.140000X0.170000X-0.140000X0.170000X0*%
G04 #@! TD*
G04 #@! TA.AperFunction,SMDPad,CuDef*
%ADD18RoundRect,0.140000X-0.170000X0.140000X-0.170000X-0.140000X0.170000X-0.140000X0.170000X0.140000X0*%
G04 #@! TD*
G04 #@! TA.AperFunction,SMDPad,CuDef*
%ADD19RoundRect,0.175000X-0.725000X0.175000X-0.725000X-0.175000X0.725000X-0.175000X0.725000X0.175000X0*%
G04 #@! TD*
G04 #@! TA.AperFunction,SMDPad,CuDef*
%ADD20RoundRect,0.175000X-0.725000X-0.175000X0.725000X-0.175000X0.725000X0.175000X-0.725000X0.175000X0*%
G04 #@! TD*
G04 #@! TA.AperFunction,HeatsinkPad*
%ADD21O,4.000000X1.600000*%
G04 #@! TD*
G04 #@! TA.AperFunction,ViaPad*
%ADD22C,0.400000*%
G04 #@! TD*
G04 #@! TA.AperFunction,Conductor*
%ADD23C,0.100000*%
G04 #@! TD*
G04 #@! TA.AperFunction,Conductor*
%ADD24C,0.200000*%
G04 #@! TD*
G04 #@! TA.AperFunction,Conductor*
%ADD25C,0.500000*%
G04 #@! TD*
G04 #@! TA.AperFunction,Conductor*
%ADD26C,0.090000*%
G04 #@! TD*
G04 APERTURE END LIST*
D10*
G04 #@! TO.P,J4,1,DAT2_1*
G04 #@! TO.N,/SD_D2*
X131920000Y-101255000D03*
G04 #@! TO.P,J4,2,DAT3/CD_2*
G04 #@! TO.N,/SD_D3*
X131920000Y-102355000D03*
G04 #@! TO.P,J4,3,CMD_3*
G04 #@! TO.N,/SD_CMD*
X131920000Y-103455000D03*
G04 #@! TO.P,J4,4,VDD_4*
G04 #@! TO.N,+3V3*
X131920000Y-104555000D03*
G04 #@! TO.P,J4,5,CLK_5*
G04 #@! TO.N,/SD_CLK*
X131920000Y-105655000D03*
G04 #@! TO.P,J4,6,VSS_6*
G04 #@! TO.N,GND*
X131920000Y-106755000D03*
G04 #@! TO.P,J4,7,DAT0_7*
G04 #@! TO.N,/SD_D0*
X131920000Y-107855000D03*
G04 #@! TO.P,J4,8,DAT1_8*
G04 #@! TO.N,/SD_D1*
X131920000Y-108955000D03*
G04 #@! TO.P,J4,9,DET_B_9*
G04 #@! TO.N,/SD_DET*
X131920000Y-109905000D03*
D11*
G04 #@! TO.P,J4,10,DET_A_10*
G04 #@! TO.N,Net-(J4-DET_A)*
X121420000Y-110855000D03*
D12*
G04 #@! TO.P,J4,11,SHIELD_11*
G04 #@! TO.N,GND*
X117270000Y-110855000D03*
D13*
X127620000Y-110855000D03*
X131920000Y-99705000D03*
D14*
X116820000Y-97355000D03*
G04 #@! TD*
D15*
G04 #@! TO.P,TP1,1,1_1*
G04 #@! TO.N,/UART_TXD*
X136300000Y-99300000D03*
G04 #@! TD*
D16*
G04 #@! TO.P,FID6,*
G04 #@! TO.N,*
X136400000Y-110500000D03*
G04 #@! TD*
D17*
G04 #@! TO.P,C14,1*
G04 #@! TO.N,+3V3*
X133620000Y-106200000D03*
G04 #@! TO.P,C14,2*
G04 #@! TO.N,GND*
X134580000Y-106200000D03*
G04 #@! TD*
D18*
G04 #@! TO.P,C13,1*
G04 #@! TO.N,VBUS*
X138800000Y-109620000D03*
G04 #@! TO.P,C13,2*
G04 #@! TO.N,GND*
X138800000Y-110580000D03*
G04 #@! TD*
D17*
G04 #@! TO.P,C24,1*
G04 #@! TO.N,+1V2*
X133620000Y-105200000D03*
G04 #@! TO.P,C24,2*
G04 #@! TO.N,GND*
X134580000Y-105200000D03*
G04 #@! TD*
D15*
G04 #@! TO.P,TP4,1,1_1*
G04 #@! TO.N,/RST#*
X114300000Y-103700000D03*
G04 #@! TD*
D17*
G04 #@! TO.P,C22,1*
G04 #@! TO.N,+1V2*
X133620000Y-103100000D03*
G04 #@! TO.P,C22,2*
G04 #@! TO.N,GND*
X134580000Y-103100000D03*
G04 #@! TD*
D19*
G04 #@! TO.P,J2,1,VBUS_1*
G04 #@! TO.N,VBUS*
X139400000Y-107200000D03*
G04 #@! TO.P,J2,2,D-_2*
G04 #@! TO.N,/USB_D-*
X139400000Y-105200000D03*
G04 #@! TO.P,J2,3,D+_3*
G04 #@! TO.N,/USB_D+*
X139400000Y-103200000D03*
G04 #@! TO.P,J2,4,GND_4*
G04 #@! TO.N,GND*
X139400000Y-101200000D03*
G04 #@! TO.P,J2,5,SSRX-_5*
G04 #@! TO.N,/USB_SSRX-*
X139400000Y-100200000D03*
G04 #@! TO.P,J2,6,SSRX+_6*
G04 #@! TO.N,/USB_SSRX+*
X139400000Y-102200000D03*
G04 #@! TO.P,J2,7,DRAIN_7*
G04 #@! TO.N,GND*
X139400000Y-104200000D03*
G04 #@! TO.P,J2,8,SSTX-_8*
G04 #@! TO.N,/USB_SSTX_R-*
X139400000Y-106200000D03*
D20*
G04 #@! TO.P,J2,9,SSTX+_9*
G04 #@! TO.N,/USB_SSTX_R+*
X139400000Y-108200000D03*
D21*
G04 #@! TO.P,J2,10,SHIELD_10*
G04 #@! TO.N,GND*
X141850000Y-98350000D03*
X141850000Y-110050000D03*
G04 #@! TD*
D17*
G04 #@! TO.P,C16,1*
G04 #@! TO.N,+1V2*
X133620000Y-102100000D03*
G04 #@! TO.P,C16,2*
G04 #@! TO.N,GND*
X134580000Y-102100000D03*
G04 #@! TD*
D15*
G04 #@! TO.P,TP2,1,1_1*
G04 #@! TO.N,/UART_RXD*
X134100000Y-99300000D03*
G04 #@! TD*
D16*
G04 #@! TO.P,FID5,*
G04 #@! TO.N,*
X111800000Y-108900000D03*
G04 #@! TD*
D17*
G04 #@! TO.P,C18,1*
G04 #@! TO.N,+3V3*
X133620000Y-101100000D03*
G04 #@! TO.P,C18,2*
G04 #@! TO.N,GND*
X134580000Y-101100000D03*
G04 #@! TD*
D15*
G04 #@! TO.P,TP3,1,1_1*
G04 #@! TO.N,GND*
X138300000Y-98300000D03*
G04 #@! TD*
D16*
G04 #@! TO.P,FID1,*
G04 #@! TO.N,*
X113700000Y-98700000D03*
G04 #@! TD*
D22*
G04 #@! TO.N,+3V3*
X123400000Y-101700000D03*
X121400000Y-100100000D03*
X133064869Y-106423456D03*
X121400000Y-99600000D03*
X131447500Y-104500000D03*
X121400000Y-99100000D03*
X121400000Y-98600000D03*
X133100000Y-101200000D03*
X130595454Y-109400000D03*
G04 #@! TO.N,Net-(J4-DET_A)*
X120700000Y-110700000D03*
G04 #@! TO.N,+1V2*
X120100000Y-109300000D03*
X120100000Y-108300000D03*
X132904707Y-105130475D03*
X131019998Y-107000000D03*
X133278732Y-103614926D03*
X120100000Y-108800000D03*
X129322500Y-108589999D03*
G04 #@! TO.N,GND*
X136500000Y-102300000D03*
X133400000Y-104100000D03*
X137700000Y-102400000D03*
X137400000Y-105200000D03*
X114800000Y-97600000D03*
X138100000Y-100700000D03*
X115400000Y-97600000D03*
X115490000Y-103280000D03*
X135700000Y-104400000D03*
X136900000Y-105600000D03*
X127900000Y-109900000D03*
X136100000Y-102700000D03*
X133900000Y-104100000D03*
X137600000Y-106300000D03*
X114760000Y-109010000D03*
X137900000Y-104300000D03*
X111500000Y-103400000D03*
X112900000Y-103400000D03*
X136100000Y-104000000D03*
X115030000Y-109980000D03*
X120320000Y-103320000D03*
X137300000Y-101500000D03*
X137500000Y-108400000D03*
X124670000Y-99450000D03*
X137400000Y-107500000D03*
X135700000Y-103100000D03*
X136200000Y-106300000D03*
X136900000Y-101900000D03*
X135600000Y-106200000D03*
X138200000Y-103200000D03*
X110900000Y-104000000D03*
X133500000Y-106850000D03*
X117700000Y-109700000D03*
X134700000Y-106850000D03*
X132100000Y-98700000D03*
X117600000Y-101700000D03*
X135300000Y-107900000D03*
X136900000Y-103200000D03*
X123400000Y-99300000D03*
X135300000Y-104900000D03*
X138000000Y-105900000D03*
X133360000Y-107790000D03*
X117700000Y-108500000D03*
X132600000Y-110700000D03*
X136900000Y-107000000D03*
X136500000Y-107400000D03*
X131500000Y-98700000D03*
X132700000Y-98700000D03*
X133500000Y-100200000D03*
X136500000Y-103600000D03*
X135100000Y-100300000D03*
X115500000Y-101100000D03*
X135100000Y-109800000D03*
X134400000Y-104100000D03*
X122190000Y-105170000D03*
X138100000Y-106700000D03*
X138400000Y-111300000D03*
X131780000Y-110630000D03*
X136000000Y-107600000D03*
X117700000Y-109100000D03*
X113120000Y-107310000D03*
X134100000Y-106850000D03*
X135200000Y-106600000D03*
X137300000Y-102800000D03*
X134620000Y-107780000D03*
X137800000Y-104800000D03*
X122300000Y-97900000D03*
X114800000Y-105800000D03*
X119300000Y-99700000D03*
X137700000Y-101100000D03*
X118550000Y-106390000D03*
X137900000Y-103700000D03*
X136400000Y-105200000D03*
X135800000Y-105200000D03*
X134900000Y-103900000D03*
X138100000Y-102000000D03*
X138000000Y-107700000D03*
X115400000Y-104700000D03*
X112900000Y-100200000D03*
X136200000Y-101300000D03*
X115400000Y-105200000D03*
X123990000Y-108250000D03*
X112200000Y-103400000D03*
X135300000Y-103500000D03*
X133990000Y-107780000D03*
X116700000Y-107700000D03*
X114020000Y-101780000D03*
G04 #@! TO.N,VBUS*
X112300000Y-105900000D03*
X112300000Y-106400000D03*
X140900000Y-108600000D03*
X115000000Y-101400000D03*
X140900000Y-108100000D03*
X115000000Y-101900000D03*
X140900000Y-107600000D03*
G04 #@! TO.N,/USB_SSTX_R+*
X139400000Y-108200000D03*
G04 #@! TO.N,/SD_CMD*
X127508412Y-101006492D03*
G04 #@! TO.N,/SD_CLK*
X127112576Y-100701015D03*
G04 #@! TO.N,/SD_D0*
X128604429Y-107166217D03*
X128100000Y-100900000D03*
G04 #@! TO.N,/SD_D1*
X131890258Y-108953765D03*
X128580001Y-101039998D03*
G04 #@! TO.N,/SD_D2*
X128900000Y-99300000D03*
G04 #@! TO.N,/SD_D3*
X129300000Y-101039998D03*
G04 #@! TO.N,/ISP*
X129800000Y-100800000D03*
X122100000Y-105900000D03*
G04 #@! TO.N,/USB_SSTX_R-*
X139400000Y-106200000D03*
G04 #@! TO.N,/USB_D+*
X135567222Y-107019228D03*
G04 #@! TO.N,/USB_D-*
X135237058Y-107394719D03*
G04 #@! TO.N,/USB_SSRX+*
X139400000Y-102200000D03*
G04 #@! TO.N,/USB_SSRX-*
X139400000Y-100200000D03*
G04 #@! TO.N,/UART_TXD*
X136300000Y-99300000D03*
G04 #@! TO.N,/UART_RXD*
X134100000Y-99300000D03*
G04 #@! TO.N,/SD_DET*
X129100000Y-109500000D03*
G04 #@! TO.N,/RST#*
X125200000Y-98100000D03*
G04 #@! TD*
G04 #@! TO.N,+3V3*
D23*
X133064869Y-106423456D02*
X133396544Y-106423456D01*
X133396544Y-106423456D02*
X133620000Y-106200000D01*
D24*
X131502500Y-104555000D02*
X131447500Y-104500000D01*
D23*
X133100000Y-101200000D02*
X133620000Y-101200000D01*
D24*
X131920000Y-104555000D02*
X131502500Y-104555000D01*
G04 #@! TO.N,Net-(J4-DET_A)*
D23*
X120700000Y-110700000D02*
X121265000Y-110700000D01*
X121265000Y-110700000D02*
X121420000Y-110855000D01*
G04 #@! TO.N,+1V2*
D24*
X133620000Y-103273658D02*
X133278732Y-103614926D01*
X133620000Y-102100000D02*
X133620000Y-103100000D01*
X133620000Y-103100000D02*
X133620000Y-103273658D01*
D23*
X132904707Y-105130475D02*
X133550475Y-105130475D01*
X133550475Y-105130475D02*
X133620000Y-105200000D01*
G04 #@! TO.N,VBUS*
D25*
X140600000Y-107200000D02*
X139400000Y-107200000D01*
X138800000Y-109620000D02*
X139520000Y-108900000D01*
X140900000Y-108100000D02*
X140900000Y-107600000D01*
X139520000Y-108900000D02*
X140600000Y-108900000D01*
X140900000Y-107600000D02*
X140900000Y-107500000D01*
X140600000Y-108900000D02*
X140900000Y-108600000D01*
X140900000Y-107500000D02*
X140600000Y-107200000D01*
X140900000Y-108600000D02*
X140900000Y-108100000D01*
G04 #@! TO.N,/SD_CMD*
D23*
X128695772Y-102979996D02*
X128735772Y-102979996D01*
X128215772Y-103535000D02*
X128215772Y-103455000D01*
X128935772Y-103455000D02*
X130077732Y-103455000D01*
X128615772Y-103850023D02*
X128615772Y-103455000D01*
X130077732Y-103455000D02*
X131920000Y-103455000D01*
X128495772Y-103930023D02*
X128535772Y-103930023D01*
X128095772Y-103930023D02*
X128135772Y-103930023D01*
X128415772Y-103455000D02*
X128415772Y-103850023D01*
X128295772Y-102979996D02*
X128335772Y-102979996D01*
X127508412Y-101006492D02*
X127508412Y-103208412D01*
X128015772Y-103535000D02*
X128015772Y-103850023D01*
X128615772Y-103375000D02*
X128615772Y-103059996D01*
X127508412Y-103208412D02*
X127755000Y-103455000D01*
X128415772Y-103059996D02*
X128415772Y-103455000D01*
X128895772Y-103455000D02*
X128935772Y-103455000D01*
X128215772Y-103850023D02*
X128215772Y-103535000D01*
X128215772Y-103455000D02*
X128215772Y-103059996D01*
X128815772Y-103059996D02*
X128815772Y-103375000D01*
X127755000Y-103455000D02*
X127935772Y-103455000D01*
X128615772Y-103455000D02*
X128615772Y-103375000D01*
X128415772Y-103850023D02*
G75*
G03*
X128495772Y-103930028I80028J23D01*
G01*
X128135772Y-103930023D02*
G75*
G03*
X128215823Y-103850023I28J80023D01*
G01*
X128015772Y-103850023D02*
G75*
G03*
X128095772Y-103930028I80028J23D01*
G01*
X128535772Y-103930023D02*
G75*
G03*
X128615823Y-103850023I28J80023D01*
G01*
X128615772Y-103059996D02*
G75*
G02*
X128695772Y-102979972I80028J-4D01*
G01*
X128335772Y-102979996D02*
G75*
G02*
X128415804Y-103059996I28J-80004D01*
G01*
X128815772Y-103375000D02*
G75*
G03*
X128895772Y-103455028I80028J0D01*
G01*
X128215772Y-103059996D02*
G75*
G02*
X128295772Y-102979972I80028J-4D01*
G01*
X127935772Y-103455000D02*
G75*
G02*
X128015800Y-103535000I28J-80000D01*
G01*
X128735772Y-102979996D02*
G75*
G02*
X128815804Y-103059996I28J-80004D01*
G01*
G04 #@! TO.N,/SD_CLK*
X128187658Y-105735000D02*
X128187658Y-105968029D01*
X127112576Y-100701015D02*
X127112576Y-105212576D01*
X129866180Y-105655000D02*
X131920000Y-105655000D01*
X128507658Y-105655000D02*
X129866180Y-105655000D01*
X127555000Y-105655000D02*
X128107658Y-105655000D01*
X127112576Y-105212576D02*
X127555000Y-105655000D01*
X128267658Y-106048029D02*
X128307658Y-106048029D01*
X128467658Y-105655000D02*
X128507658Y-105655000D01*
X128387658Y-105968029D02*
X128387658Y-105735000D01*
X128307658Y-106048029D02*
G75*
G03*
X128387729Y-105968029I42J80029D01*
G01*
X128387658Y-105735000D02*
G75*
G02*
X128467658Y-105654958I80042J0D01*
G01*
X128187658Y-105968029D02*
G75*
G03*
X128267658Y-106048042I80042J29D01*
G01*
X128107658Y-105655000D02*
G75*
G02*
X128187700Y-105735000I42J-80000D01*
G01*
G04 #@! TO.N,/SD_D0*
X131920000Y-107855000D02*
X130547670Y-107855000D01*
X130547670Y-107855000D02*
X129293212Y-107855000D01*
X129293212Y-107855000D02*
X128604429Y-107166217D01*
G04 #@! TO.N,/SD_D2*
X130420000Y-100625656D02*
X130180000Y-100625656D01*
X130855000Y-101255000D02*
X130500000Y-100900000D01*
X130000000Y-99745656D02*
X130000000Y-99705656D01*
X130180000Y-100425656D02*
X130420000Y-100425656D01*
X130080000Y-99625656D02*
X130500000Y-99625656D01*
X130500000Y-99825656D02*
X130080000Y-99825656D01*
X131000000Y-99545656D02*
X131000000Y-99505656D01*
X129474665Y-98725335D02*
X128900000Y-99300000D01*
X130920000Y-99425656D02*
X130500000Y-99425656D01*
X130500000Y-99105656D02*
X130500000Y-98900000D01*
X131000000Y-100345656D02*
X131000000Y-100305656D01*
X130000000Y-99345656D02*
X130000000Y-99305656D01*
X130500000Y-100425656D02*
X130920000Y-100425656D01*
X130080000Y-99225656D02*
X130420000Y-99225656D01*
X130500000Y-98900000D02*
X130325335Y-98725335D01*
X130000000Y-100145656D02*
X130000000Y-100105656D01*
X130100000Y-100545656D02*
X130100000Y-100505656D01*
X130420000Y-100425656D02*
X130500000Y-100425656D01*
X130500000Y-100225656D02*
X130080000Y-100225656D01*
X130170000Y-99425656D02*
X130080000Y-99425656D01*
X130500000Y-99145656D02*
X130500000Y-99105656D01*
X130920000Y-99825656D02*
X130500000Y-99825656D01*
X130500000Y-99425656D02*
X130170000Y-99425656D01*
X130500000Y-99625656D02*
X130920000Y-99625656D01*
X130920000Y-100225656D02*
X130500000Y-100225656D01*
X131920000Y-101255000D02*
X130855000Y-101255000D01*
X130500000Y-100025656D02*
X130920000Y-100025656D01*
X131000000Y-99945656D02*
X131000000Y-99905656D01*
X130325335Y-98725335D02*
X129474665Y-98725335D01*
X130500000Y-100900000D02*
X130500000Y-100705656D01*
X130080000Y-100025656D02*
X130500000Y-100025656D01*
X130100000Y-100505656D02*
G75*
G02*
X130180000Y-100425700I80000J-44D01*
G01*
X130080000Y-100225656D02*
G75*
G02*
X130000044Y-100145656I0J79956D01*
G01*
X130000000Y-100105656D02*
G75*
G02*
X130080000Y-100025700I80000J-44D01*
G01*
X130920000Y-100025656D02*
G75*
G03*
X130999956Y-99945656I0J79956D01*
G01*
X130000000Y-99305656D02*
G75*
G02*
X130080000Y-99225700I80000J-44D01*
G01*
X130080000Y-99825656D02*
G75*
G02*
X130000044Y-99745656I0J79956D01*
G01*
X131000000Y-99505656D02*
G75*
G03*
X130920000Y-99425700I-80000J-44D01*
G01*
X130420000Y-99225656D02*
G75*
G03*
X130499956Y-99145656I0J79956D01*
G01*
X130080000Y-99425656D02*
G75*
G02*
X130000044Y-99345656I0J79956D01*
G01*
X130500000Y-100705656D02*
G75*
G03*
X130420000Y-100625700I-80000J-44D01*
G01*
X130000000Y-99705656D02*
G75*
G02*
X130080000Y-99625700I80000J-44D01*
G01*
X131000000Y-99905656D02*
G75*
G03*
X130920000Y-99825700I-80000J-44D01*
G01*
X130920000Y-99625656D02*
G75*
G03*
X130999956Y-99545656I0J79956D01*
G01*
X130180000Y-100625656D02*
G75*
G02*
X130100044Y-100545656I0J79956D01*
G01*
X131000000Y-100305656D02*
G75*
G03*
X130920000Y-100225700I-80000J-44D01*
G01*
X130920000Y-100425656D02*
G75*
G03*
X130999956Y-100345656I0J79956D01*
G01*
G04 #@! TO.N,/SD_D3*
X131035000Y-102722948D02*
X131035000Y-102435000D01*
X129300000Y-101950452D02*
X129300000Y-102100000D01*
X129220000Y-101630452D02*
X128932040Y-101630452D01*
X131155000Y-102355000D02*
X131380096Y-102355000D01*
X128852040Y-101710452D02*
X128852040Y-101750452D01*
X130435000Y-101987049D02*
X130435000Y-102355000D01*
X129715000Y-102802960D02*
X129755000Y-102802960D01*
X130235000Y-102722960D02*
X130235000Y-102355000D01*
X130235000Y-102355000D02*
X130235000Y-101987049D01*
X131380096Y-102355000D02*
X131920000Y-102355000D01*
X130435000Y-102355000D02*
X130435000Y-102722951D01*
X130715000Y-101907049D02*
X130755000Y-101907049D01*
X129835000Y-102435000D02*
X129835000Y-102355000D01*
X129300000Y-101039998D02*
X129300000Y-101550452D01*
X131115000Y-102355000D02*
X131155000Y-102355000D01*
X130315000Y-101907049D02*
X130355000Y-101907049D01*
X130915000Y-102802948D02*
X130955000Y-102802948D01*
X130635000Y-102722951D02*
X130635000Y-102355000D01*
X129835000Y-102355000D02*
X129835000Y-101987040D01*
X129300000Y-101910452D02*
X129300000Y-101950452D01*
X130115000Y-102802960D02*
X130155000Y-102802960D01*
X130835000Y-101987049D02*
X130835000Y-102355000D01*
X130515000Y-102802951D02*
X130555000Y-102802951D01*
X129635000Y-102435000D02*
X129635000Y-102722960D01*
X130635000Y-102355000D02*
X130635000Y-101987049D01*
X129915000Y-101907040D02*
X129955000Y-101907040D01*
X130835000Y-102355000D02*
X130835000Y-102435000D01*
X129300000Y-102100000D02*
X129476776Y-102276776D01*
X128932040Y-101830452D02*
X129220000Y-101830452D01*
X129835000Y-102722960D02*
X129835000Y-102435000D01*
X130835000Y-102435000D02*
X130835000Y-102722948D01*
X130035000Y-101987040D02*
X130035000Y-102355000D01*
X129476776Y-102276776D02*
X129555000Y-102355000D01*
X130035000Y-102355000D02*
X130035000Y-102722960D01*
X130555000Y-102802951D02*
G75*
G03*
X130634951Y-102722951I0J79951D01*
G01*
X130155000Y-102802960D02*
G75*
G03*
X130234960Y-102722960I0J79960D01*
G01*
X128852040Y-101750452D02*
G75*
G03*
X128932040Y-101830460I79960J-48D01*
G01*
X129635000Y-102722960D02*
G75*
G03*
X129715000Y-102803000I80000J-40D01*
G01*
X130755000Y-101907049D02*
G75*
G02*
X130834951Y-101987049I0J-79951D01*
G01*
X130035000Y-102722960D02*
G75*
G03*
X130115000Y-102803000I80000J-40D01*
G01*
X129955000Y-101907040D02*
G75*
G02*
X130034960Y-101987040I0J-79960D01*
G01*
X128932040Y-101630452D02*
G75*
G03*
X128851952Y-101710452I-40J-80048D01*
G01*
X129835000Y-101987040D02*
G75*
G02*
X129915000Y-101907000I80000J40D01*
G01*
X129220000Y-101830452D02*
G75*
G02*
X129300048Y-101910452I0J-80048D01*
G01*
X130635000Y-101987049D02*
G75*
G02*
X130715000Y-101907000I80000J49D01*
G01*
X129755000Y-102802960D02*
G75*
G03*
X129834960Y-102722960I0J79960D01*
G01*
X131035000Y-102435000D02*
G75*
G02*
X131115000Y-102355000I80000J0D01*
G01*
X129555000Y-102355000D02*
G75*
G02*
X129635000Y-102435000I0J-80000D01*
G01*
X130435000Y-102722951D02*
G75*
G03*
X130515000Y-102803000I80000J-49D01*
G01*
X130355000Y-101907049D02*
G75*
G02*
X130434951Y-101987049I0J-79951D01*
G01*
X129300000Y-101550452D02*
G75*
G02*
X129220000Y-101630500I-80000J-48D01*
G01*
X130235000Y-101987049D02*
G75*
G02*
X130315000Y-101907000I80000J49D01*
G01*
X130835000Y-102722948D02*
G75*
G03*
X130915000Y-102802900I80000J48D01*
G01*
X130955000Y-102802948D02*
G75*
G03*
X131035048Y-102722948I0J80048D01*
G01*
G04 #@! TO.N,/ISP*
X122948985Y-100351015D02*
X121400000Y-101900000D01*
X122100000Y-105800000D02*
X122100000Y-105900000D01*
X129351015Y-100351015D02*
X122948985Y-100351015D01*
X129800000Y-100800000D02*
X129351015Y-100351015D01*
X121400000Y-101900000D02*
X121400000Y-105100000D01*
X121400000Y-105100000D02*
X122100000Y-105800000D01*
G04 #@! TO.N,/USB_D+*
D26*
X138850000Y-103200000D02*
X138310000Y-103740000D01*
X138310000Y-104805650D02*
X136096422Y-107019228D01*
X139400000Y-103200000D02*
X138850000Y-103200000D01*
X136096422Y-107019228D02*
X135567222Y-107019228D01*
X138310000Y-103740000D02*
X138310000Y-104805650D01*
G04 #@! TO.N,/USB_D-*
X135679635Y-107394719D02*
X135237058Y-107394719D01*
X139400000Y-105200000D02*
X138184350Y-105200000D01*
X135865126Y-107209228D02*
X135679635Y-107394719D01*
X138184350Y-105200000D02*
X136175123Y-107209228D01*
X136175123Y-107209228D02*
X135865126Y-107209228D01*
G04 #@! TO.N,/SD_DET*
D23*
X129505000Y-109905000D02*
X131920000Y-109905000D01*
X129100000Y-109500000D02*
X129505000Y-109905000D01*
G04 #@! TO.N,/RST#*
X124400000Y-98250000D02*
X116104288Y-98250000D01*
X114370000Y-99984288D02*
X114370000Y-103630000D01*
X124550000Y-98100000D02*
X124400000Y-98250000D01*
X116104288Y-98250000D02*
X114370000Y-99984288D01*
X125200000Y-98100000D02*
X124550000Y-98100000D01*
X114370000Y-103630000D02*
X114300000Y-103700000D01*
G04 #@! TD*
G04 #@! TA.AperFunction,Conductor*
G04 #@! TO.N,GND*
G36*
X143470928Y-96627949D02*
G01*
X143486142Y-96634251D01*
X143504404Y-96647413D01*
X143557525Y-96708651D01*
X143725450Y-96856903D01*
X143725455Y-96856907D01*
X143771356Y-96887703D01*
X143781868Y-96894756D01*
X143785752Y-96897651D01*
X143795130Y-96905389D01*
X143795132Y-96905390D01*
X143814175Y-96916542D01*
X143816714Y-96918135D01*
X143843034Y-96935794D01*
X143911465Y-96981707D01*
X144000649Y-97025742D01*
X144036867Y-97046952D01*
X144068162Y-97059077D01*
X144112319Y-97080880D01*
X144161530Y-97097535D01*
X144206595Y-97112787D01*
X144207570Y-97113129D01*
X144208520Y-97113473D01*
X144209540Y-97113855D01*
X144298075Y-97148159D01*
X144298076Y-97148160D01*
X144298079Y-97148160D01*
X144298080Y-97148161D01*
X144386657Y-97168832D01*
X144404063Y-97176722D01*
X144412744Y-97182946D01*
X144431313Y-97209321D01*
X144432127Y-97212173D01*
X144434009Y-97225621D01*
X144434009Y-98094604D01*
X144430274Y-98113368D01*
X144429253Y-98115831D01*
X144402727Y-98142342D01*
X144365224Y-98142332D01*
X144340301Y-98119257D01*
X144340107Y-98118876D01*
X144335398Y-98104353D01*
X144333854Y-98094604D01*
X144325793Y-98043711D01*
X144325792Y-98043708D01*
X144262172Y-97847903D01*
X144168701Y-97664458D01*
X144047685Y-97497893D01*
X144047682Y-97497889D01*
X144047681Y-97497888D01*
X144047679Y-97497885D01*
X144047677Y-97497883D01*
X143902112Y-97352319D01*
X143902089Y-97352301D01*
X143820671Y-97293148D01*
X143735541Y-97231298D01*
X143552096Y-97137827D01*
X143552095Y-97137826D01*
X143552094Y-97137826D01*
X143356381Y-97074236D01*
X143356296Y-97074208D01*
X143356288Y-97074206D01*
X143152941Y-97042000D01*
X143152940Y-97042000D01*
X142104000Y-97042000D01*
X142104000Y-97801000D01*
X142089648Y-97835648D01*
X142055000Y-97850000D01*
X141645000Y-97850000D01*
X141610352Y-97835648D01*
X141596000Y-97801000D01*
X141596000Y-97042000D01*
X140547059Y-97042000D01*
X140343710Y-97074206D01*
X140343696Y-97074209D01*
X140343617Y-97074236D01*
X140147904Y-97137826D01*
X139964458Y-97231298D01*
X139797891Y-97352315D01*
X139652315Y-97497891D01*
X139531298Y-97664458D01*
X139437826Y-97847904D01*
X139374236Y-98043617D01*
X139374208Y-98043700D01*
X139374207Y-98043704D01*
X139367053Y-98088876D01*
X139365925Y-98095999D01*
X139365926Y-98096000D01*
X140586564Y-98096000D01*
X140621212Y-98110352D01*
X140635564Y-98145000D01*
X140633894Y-98157683D01*
X140600000Y-98284172D01*
X140600000Y-98415827D01*
X140604907Y-98434140D01*
X140630093Y-98528134D01*
X140633894Y-98542317D01*
X140628999Y-98579500D01*
X140599247Y-98602330D01*
X140586564Y-98604000D01*
X139365925Y-98604000D01*
X139371557Y-98639564D01*
X139374207Y-98656293D01*
X139374236Y-98656381D01*
X139437825Y-98852092D01*
X139437827Y-98852096D01*
X139531298Y-99035541D01*
X139576472Y-99097718D01*
X139652301Y-99202089D01*
X139652319Y-99202112D01*
X139797883Y-99347677D01*
X139797885Y-99347679D01*
X139797888Y-99347681D01*
X139797889Y-99347682D01*
X139797893Y-99347685D01*
X139964458Y-99468701D01*
X140147903Y-99562172D01*
X140343617Y-99625762D01*
X140343629Y-99625773D01*
X140343702Y-99625790D01*
X140343708Y-99625792D01*
X140343711Y-99625793D01*
X140547059Y-99658000D01*
X141596000Y-99658000D01*
X141596000Y-98899000D01*
X141610352Y-98864352D01*
X141645000Y-98850000D01*
X142055000Y-98850000D01*
X142089648Y-98864352D01*
X142104000Y-98899000D01*
X142104000Y-99658000D01*
X143152940Y-99658000D01*
X143152941Y-99658000D01*
X143356288Y-99625793D01*
X143356291Y-99625792D01*
X143552096Y-99562172D01*
X143735541Y-99468701D01*
X143900368Y-99348947D01*
X143901168Y-99348418D01*
X143902112Y-99347681D01*
X144047681Y-99202112D01*
X144048418Y-99201168D01*
X144048951Y-99200363D01*
X144049428Y-99199707D01*
X144168701Y-99035541D01*
X144262172Y-98852096D01*
X144325792Y-98656291D01*
X144325793Y-98656288D01*
X144335124Y-98597375D01*
X144335160Y-98597162D01*
X144335383Y-98596805D01*
X144341700Y-98579678D01*
X144343096Y-98577400D01*
X144351209Y-98571504D01*
X144355049Y-98565367D01*
X144361794Y-98563813D01*
X144373433Y-98555356D01*
X144388296Y-98557708D01*
X144391595Y-98556949D01*
X144394337Y-98558664D01*
X144410475Y-98561219D01*
X144422261Y-98576131D01*
X144423390Y-98576838D01*
X144423627Y-98577861D01*
X144431441Y-98587747D01*
X144431574Y-98588153D01*
X144434009Y-98603407D01*
X144434009Y-109794604D01*
X144430273Y-109808433D01*
X144430570Y-109812269D01*
X144428622Y-109814542D01*
X144427344Y-109819277D01*
X144426130Y-109821360D01*
X144423898Y-109820059D01*
X144406177Y-109840755D01*
X144368786Y-109843649D01*
X144340301Y-109819256D01*
X144340107Y-109818876D01*
X144335398Y-109804353D01*
X144335398Y-109804352D01*
X144325793Y-109743711D01*
X144325792Y-109743708D01*
X144262172Y-109547903D01*
X144168701Y-109364458D01*
X144047685Y-109197893D01*
X144047682Y-109197889D01*
X144047681Y-109197888D01*
X144047679Y-109197885D01*
X144047677Y-109197883D01*
X143902112Y-109052319D01*
X143902089Y-109052301D01*
X143801280Y-108979060D01*
X143735541Y-108931298D01*
X143552096Y-108837827D01*
X143552095Y-108837826D01*
X143552094Y-108837826D01*
X143356381Y-108774236D01*
X143356296Y-108774208D01*
X143356288Y-108774206D01*
X143307077Y-108766412D01*
X143152941Y-108742000D01*
X143152940Y-108742000D01*
X142104000Y-108742000D01*
X142104000Y-109501000D01*
X142089648Y-109535648D01*
X142055000Y-109550000D01*
X141645000Y-109550000D01*
X141610352Y-109535648D01*
X141596000Y-109501000D01*
X141596000Y-108742000D01*
X141298420Y-108742000D01*
X141279672Y-108738271D01*
X141272774Y-108735414D01*
X141246258Y-108708898D01*
X141244986Y-108705828D01*
X141242928Y-108674401D01*
X141250500Y-108646145D01*
X141250500Y-107453853D01*
X141250500Y-107453851D01*
X141229619Y-107375926D01*
X141229618Y-107375924D01*
X141226614Y-107364713D01*
X141226614Y-107364712D01*
X141203370Y-107324453D01*
X141203363Y-107324439D01*
X141182949Y-107289081D01*
X141182485Y-107288048D01*
X141180875Y-107285444D01*
X141180873Y-107285441D01*
X141180488Y-107284819D01*
X141180474Y-107284794D01*
X141180471Y-107284791D01*
X141180470Y-107284788D01*
X141000170Y-107104488D01*
X140815214Y-106919531D01*
X140815211Y-106919529D01*
X140811706Y-106917505D01*
X140735290Y-106873386D01*
X140735262Y-106873374D01*
X140734866Y-106873272D01*
X140646150Y-106849500D01*
X140646147Y-106849500D01*
X140646144Y-106849500D01*
X140375013Y-106849500D01*
X140356262Y-106845770D01*
X140343851Y-106840629D01*
X140334514Y-106832166D01*
X140333828Y-106833194D01*
X140326352Y-106828199D01*
X140323903Y-106826314D01*
X140321069Y-106824667D01*
X140278214Y-106796033D01*
X140278213Y-106796033D01*
X140232495Y-106765485D01*
X140152133Y-106749500D01*
X140152130Y-106749500D01*
X138647874Y-106749500D01*
X138647871Y-106749500D01*
X138591858Y-106760641D01*
X138567503Y-106765485D01*
X138476377Y-106826372D01*
X138476374Y-106826375D01*
X138437865Y-106884011D01*
X138415485Y-106917504D01*
X138413315Y-106928414D01*
X138399500Y-106997867D01*
X138399500Y-106997869D01*
X138399500Y-106997870D01*
X138399500Y-107402128D01*
X138409788Y-107453851D01*
X138415485Y-107482495D01*
X138476374Y-107573624D01*
X138512876Y-107598013D01*
X138567505Y-107634515D01*
X138647867Y-107650500D01*
X140152132Y-107650499D01*
X140232495Y-107634515D01*
X140323624Y-107573624D01*
X140323624Y-107573622D01*
X140324997Y-107572706D01*
X140329881Y-107568696D01*
X140336276Y-107564423D01*
X140344758Y-107558757D01*
X140371979Y-107550500D01*
X140424775Y-107550500D01*
X140443526Y-107554230D01*
X140460165Y-107561122D01*
X140476062Y-107571744D01*
X140528255Y-107623937D01*
X140538876Y-107639831D01*
X140543295Y-107650499D01*
X140545770Y-107656472D01*
X140549500Y-107675225D01*
X140549500Y-108424774D01*
X140545770Y-108443527D01*
X140538877Y-108460167D01*
X140528255Y-108476062D01*
X140476062Y-108528255D01*
X140460165Y-108538877D01*
X140451512Y-108542461D01*
X140414009Y-108542461D01*
X140387494Y-108515949D01*
X140386785Y-108514238D01*
X140383994Y-108485917D01*
X140387633Y-108467626D01*
X140387552Y-108467224D01*
X140400500Y-108402133D01*
X140400499Y-107997868D01*
X140384515Y-107917505D01*
X140364309Y-107887266D01*
X140364308Y-107887264D01*
X140323626Y-107826377D01*
X140323621Y-107826372D01*
X140234253Y-107766660D01*
X140234254Y-107766657D01*
X140234244Y-107766654D01*
X140232495Y-107765485D01*
X140152133Y-107749500D01*
X140152130Y-107749500D01*
X138647874Y-107749500D01*
X138647871Y-107749500D01*
X138587595Y-107761488D01*
X138567503Y-107765485D01*
X138476377Y-107826372D01*
X138476372Y-107826377D01*
X138418169Y-107913488D01*
X138416627Y-107915366D01*
X138415485Y-107917503D01*
X138399500Y-107997863D01*
X138399500Y-107997867D01*
X138399500Y-107997868D01*
X138399500Y-107997870D01*
X138399500Y-108402128D01*
X138414383Y-108476954D01*
X138415485Y-108482495D01*
X138476372Y-108573621D01*
X138476373Y-108573621D01*
X138476375Y-108573624D01*
X138492874Y-108584648D01*
X138567505Y-108634515D01*
X138647867Y-108650500D01*
X139145773Y-108650499D01*
X139164518Y-108654226D01*
X139165760Y-108654740D01*
X139169393Y-108656245D01*
X139195914Y-108682759D01*
X139195920Y-108720262D01*
X139195917Y-108720269D01*
X139193898Y-108725143D01*
X139183276Y-108741039D01*
X138706062Y-109218255D01*
X138690168Y-109228876D01*
X138673529Y-109235769D01*
X138654775Y-109239500D01*
X138606306Y-109239500D01*
X138564220Y-109247871D01*
X138536161Y-109253452D01*
X138456607Y-109306607D01*
X138403452Y-109386161D01*
X138399506Y-109406000D01*
X138389500Y-109456306D01*
X138389500Y-109783693D01*
X138403356Y-109853352D01*
X138403452Y-109853836D01*
X138456607Y-109933390D01*
X138456610Y-109933393D01*
X138509524Y-109968748D01*
X138536161Y-109986546D01*
X138536163Y-109986547D01*
X138606306Y-110000499D01*
X138606312Y-110000500D01*
X138993683Y-110000500D01*
X138993688Y-110000500D01*
X138994625Y-110000313D01*
X139059112Y-109987486D01*
X139061514Y-109987250D01*
X139061521Y-109987248D01*
X139065846Y-109986164D01*
X139069879Y-109982510D01*
X139090476Y-109968748D01*
X139097264Y-109964212D01*
X139143390Y-109933392D01*
X139143391Y-109933391D01*
X139196546Y-109853839D01*
X139198305Y-109845000D01*
X139210499Y-109783693D01*
X139210500Y-109783688D01*
X139210500Y-109735222D01*
X139214230Y-109716471D01*
X139216412Y-109711203D01*
X139221122Y-109699832D01*
X139231740Y-109683940D01*
X139320335Y-109595345D01*
X139336216Y-109584731D01*
X139341097Y-109582709D01*
X139378595Y-109582705D01*
X139405103Y-109609186D01*
X139405348Y-109609776D01*
X139406697Y-109643709D01*
X139374210Y-109743698D01*
X139374206Y-109743709D01*
X139367874Y-109783693D01*
X139365925Y-109795999D01*
X139365926Y-109796000D01*
X140586564Y-109796000D01*
X140621212Y-109810352D01*
X140635564Y-109845000D01*
X140633894Y-109857683D01*
X140600000Y-109984172D01*
X140600000Y-110115827D01*
X140633894Y-110242317D01*
X140628999Y-110279500D01*
X140599247Y-110302330D01*
X140586564Y-110304000D01*
X139365925Y-110304000D01*
X139373157Y-110349667D01*
X139374207Y-110356293D01*
X139374236Y-110356381D01*
X139437825Y-110552092D01*
X139437827Y-110552096D01*
X139531298Y-110735541D01*
X139573089Y-110793061D01*
X139652301Y-110902089D01*
X139652319Y-110902112D01*
X139797883Y-111047677D01*
X139797885Y-111047679D01*
X139797888Y-111047681D01*
X139797889Y-111047682D01*
X139797893Y-111047685D01*
X139964458Y-111168701D01*
X140147903Y-111262172D01*
X140343708Y-111325792D01*
X140343711Y-111325793D01*
X140547059Y-111358000D01*
X141596000Y-111358000D01*
X141596000Y-110599000D01*
X141610352Y-110564352D01*
X141645000Y-110550000D01*
X142055000Y-110550000D01*
X142089648Y-110564352D01*
X142104000Y-110599000D01*
X142104000Y-111358000D01*
X143152940Y-111358000D01*
X143152941Y-111358000D01*
X143356288Y-111325793D01*
X143356291Y-111325792D01*
X143552096Y-111262172D01*
X143735541Y-111168701D01*
X143900368Y-111048947D01*
X143901168Y-111048418D01*
X143902112Y-111047681D01*
X144047681Y-110902112D01*
X144048418Y-110901168D01*
X144048951Y-110900363D01*
X144060468Y-110884511D01*
X144168701Y-110735541D01*
X144262172Y-110552096D01*
X144325792Y-110356291D01*
X144325793Y-110356288D01*
X144335124Y-110297375D01*
X144335160Y-110297162D01*
X144335383Y-110296805D01*
X144341700Y-110279678D01*
X144343096Y-110277400D01*
X144351209Y-110271504D01*
X144355049Y-110265367D01*
X144361794Y-110263813D01*
X144373433Y-110255356D01*
X144388296Y-110257708D01*
X144391595Y-110256949D01*
X144394337Y-110258664D01*
X144410475Y-110261219D01*
X144422261Y-110276131D01*
X144423390Y-110276838D01*
X144423627Y-110277861D01*
X144431441Y-110287747D01*
X144431574Y-110288153D01*
X144434009Y-110303407D01*
X144434009Y-111023224D01*
X144430279Y-111041975D01*
X144426205Y-111051811D01*
X144404684Y-111075920D01*
X144402706Y-111077016D01*
X144388373Y-111082243D01*
X144324501Y-111094749D01*
X144324498Y-111094750D01*
X144305063Y-111101326D01*
X144302465Y-111102126D01*
X144299792Y-111102868D01*
X144298281Y-111103241D01*
X144297809Y-111103381D01*
X144288124Y-111107018D01*
X144287387Y-111107288D01*
X144286693Y-111107536D01*
X144285913Y-111107808D01*
X144112309Y-111166563D01*
X144059272Y-111192749D01*
X144059271Y-111192748D01*
X144057070Y-111193834D01*
X144035994Y-111201754D01*
X144006735Y-111218691D01*
X144005407Y-111219347D01*
X144005265Y-111219418D01*
X143911466Y-111265732D01*
X143911459Y-111265736D01*
X143824681Y-111323959D01*
X143824680Y-111323960D01*
X143823320Y-111324872D01*
X143793936Y-111341883D01*
X143776450Y-111356316D01*
X143774425Y-111357675D01*
X143774421Y-111357679D01*
X143725456Y-111390531D01*
X143590235Y-111509909D01*
X143589898Y-111510206D01*
X143588457Y-111511476D01*
X143587270Y-111512488D01*
X143578254Y-111519932D01*
X143578238Y-111519947D01*
X143577618Y-111520634D01*
X143573730Y-111524478D01*
X143572540Y-111525530D01*
X143572511Y-111525554D01*
X143572512Y-111525555D01*
X143557523Y-111538789D01*
X143557521Y-111538790D01*
X143557513Y-111538801D01*
X143557332Y-111539011D01*
X143505326Y-111598963D01*
X143490223Y-111610683D01*
X143475493Y-111618047D01*
X143453582Y-111623219D01*
X115820670Y-111623219D01*
X115820647Y-111623218D01*
X115801340Y-111623214D01*
X115800912Y-111623212D01*
X115799579Y-111623200D01*
X115798734Y-111623185D01*
X115328872Y-111610854D01*
X115327989Y-111610822D01*
X115327359Y-111610794D01*
X115327102Y-111610783D01*
X115326214Y-111610735D01*
X115214284Y-111603629D01*
X115213525Y-111603574D01*
X115212734Y-111603512D01*
X115212002Y-111603448D01*
X114799513Y-111564395D01*
X114798518Y-111564290D01*
X114797564Y-111564180D01*
X114796599Y-111564059D01*
X114689503Y-111549551D01*
X114688836Y-111549456D01*
X114688127Y-111549350D01*
X114687442Y-111549243D01*
X114273952Y-111481435D01*
X114272936Y-111481257D01*
X114271846Y-111481054D01*
X114270824Y-111480852D01*
X114171754Y-111460159D01*
X114171152Y-111460029D01*
X114170580Y-111459902D01*
X114169997Y-111459769D01*
X113754755Y-111362239D01*
X113753623Y-111361959D01*
X113752512Y-111361670D01*
X113751440Y-111361378D01*
X113664414Y-111336620D01*
X113663916Y-111336475D01*
X113663470Y-111336343D01*
X113662949Y-111336186D01*
X113244568Y-111207293D01*
X113243426Y-111206926D01*
X113242289Y-111206545D01*
X113241129Y-111206140D01*
X113171219Y-111180747D01*
X113170803Y-111180593D01*
X113170297Y-111180404D01*
X113169860Y-111180239D01*
X112786766Y-111032972D01*
X112745912Y-111017266D01*
X112744739Y-111016797D01*
X112743595Y-111016323D01*
X112742385Y-111015803D01*
X112732916Y-111011578D01*
X112696434Y-110995300D01*
X112696104Y-110995151D01*
X112695710Y-110994971D01*
X112695416Y-110994835D01*
X112261377Y-110793061D01*
X112260162Y-110792476D01*
X112258915Y-110791854D01*
X112257686Y-110791219D01*
X112251397Y-110787857D01*
X112251394Y-110787856D01*
X112246872Y-110785439D01*
X112246399Y-110785183D01*
X112163544Y-110739563D01*
X120399499Y-110739563D01*
X120412441Y-110787856D01*
X120419979Y-110815989D01*
X120419979Y-110815991D01*
X120450421Y-110868716D01*
X120450937Y-110869611D01*
X120450944Y-110869623D01*
X120459535Y-110884504D01*
X120459538Y-110884508D01*
X120459540Y-110884511D01*
X120515489Y-110940460D01*
X120584011Y-110980021D01*
X120619476Y-110989523D01*
X120619477Y-110989524D01*
X120639729Y-110994951D01*
X120660436Y-111000500D01*
X120660438Y-111000500D01*
X120739563Y-111000500D01*
X120739564Y-111000500D01*
X120790513Y-110986847D01*
X120815989Y-110980021D01*
X120840407Y-110965922D01*
X120843444Y-110964675D01*
X120846054Y-110964682D01*
X120855666Y-110961420D01*
X120857952Y-110961119D01*
X120863064Y-110960447D01*
X120879259Y-110964782D01*
X120880947Y-110964788D01*
X120881552Y-110965396D01*
X120899265Y-110970139D01*
X120899719Y-110970487D01*
X120917234Y-110996674D01*
X120917825Y-110998876D01*
X120919500Y-111011578D01*
X120919500Y-111364896D01*
X120919535Y-111365188D01*
X120919732Y-111366062D01*
X120924390Y-111389480D01*
X120924723Y-111392866D01*
X120925582Y-111395266D01*
X120928009Y-111398223D01*
X120945751Y-111424775D01*
X120947543Y-111427457D01*
X120980787Y-111449669D01*
X121010101Y-111455500D01*
X121829898Y-111455499D01*
X121859213Y-111449669D01*
X121892457Y-111427457D01*
X121914669Y-111394213D01*
X121920500Y-111364899D01*
X121920500Y-111255000D01*
X123420000Y-111255000D01*
X127020000Y-111255000D01*
X128220000Y-111255000D01*
X131470000Y-111255000D01*
X131470000Y-110505000D01*
X128220000Y-110505000D01*
X128220000Y-111255000D01*
X127020000Y-111255000D01*
X127020000Y-110505000D01*
X123420000Y-110505000D01*
X123420000Y-111255000D01*
X121920500Y-111255000D01*
X121920499Y-110420935D01*
X135799500Y-110420935D01*
X135799500Y-110579063D01*
X135840309Y-110731362D01*
X135840412Y-110731761D01*
X135840422Y-110731785D01*
X135919470Y-110868701D01*
X135919478Y-110868714D01*
X135919480Y-110868716D01*
X136031284Y-110980520D01*
X136031287Y-110980521D01*
X136031290Y-110980524D01*
X136031315Y-110980538D01*
X136031919Y-110980912D01*
X136031919Y-110980913D01*
X136034542Y-110982533D01*
X136035573Y-110982997D01*
X136105249Y-111023224D01*
X136168214Y-111059577D01*
X136198233Y-111067620D01*
X136247108Y-111080716D01*
X136317857Y-111099673D01*
X136320291Y-111100500D01*
X136479060Y-111100500D01*
X136485854Y-111100500D01*
X136491740Y-111097101D01*
X136631784Y-111059577D01*
X136768716Y-110980520D01*
X136880520Y-110868716D01*
X136955086Y-110739563D01*
X136955089Y-110739558D01*
X136957723Y-110734997D01*
X136959577Y-110731785D01*
X136970861Y-110689669D01*
X136997101Y-110591740D01*
X137000500Y-110585854D01*
X137000500Y-110420938D01*
X136973589Y-110320510D01*
X136968639Y-110302036D01*
X136959577Y-110268216D01*
X136959576Y-110268213D01*
X136955025Y-110260331D01*
X136938523Y-110231747D01*
X136880524Y-110131290D01*
X136880521Y-110131287D01*
X136880520Y-110131284D01*
X136768716Y-110019480D01*
X136768715Y-110019479D01*
X136768701Y-110019470D01*
X136631785Y-109940422D01*
X136631761Y-109940412D01*
X136631362Y-109940309D01*
X136479063Y-109899500D01*
X136479060Y-109899500D01*
X136479057Y-109899500D01*
X136320943Y-109899500D01*
X136320940Y-109899500D01*
X136320937Y-109899500D01*
X136168636Y-109940309D01*
X136168238Y-109940412D01*
X136168213Y-109940422D01*
X136031292Y-110019473D01*
X136031275Y-110019486D01*
X135919486Y-110131275D01*
X135919473Y-110131292D01*
X135840422Y-110268213D01*
X135840412Y-110268238D01*
X135840309Y-110268636D01*
X135799500Y-110420935D01*
X121920499Y-110420935D01*
X121920499Y-110345102D01*
X121914669Y-110315787D01*
X121914667Y-110315784D01*
X121914667Y-110315783D01*
X121892457Y-110282543D01*
X121892456Y-110282542D01*
X121859214Y-110260331D01*
X121859213Y-110260330D01*
X121859212Y-110260330D01*
X121829901Y-110254500D01*
X121829898Y-110254500D01*
X121010032Y-110254500D01*
X121009246Y-110254671D01*
X121002539Y-110256005D01*
X120985517Y-110259390D01*
X120983100Y-110259628D01*
X120982250Y-110259886D01*
X120982249Y-110259885D01*
X120980787Y-110260329D01*
X120947541Y-110282543D01*
X120925330Y-110315784D01*
X120925021Y-110316802D01*
X120924951Y-110317692D01*
X120919500Y-110345095D01*
X120919500Y-110387040D01*
X120919349Y-110388962D01*
X120918343Y-110390934D01*
X120915771Y-110403873D01*
X120912916Y-110410766D01*
X120903388Y-110420293D01*
X120902326Y-110422379D01*
X120900810Y-110422871D01*
X120886397Y-110437285D01*
X120886358Y-110437301D01*
X120885828Y-110437520D01*
X120854449Y-110439569D01*
X120852244Y-110438979D01*
X120840412Y-110434079D01*
X120821576Y-110423205D01*
X120818993Y-110421223D01*
X120815988Y-110419978D01*
X120815987Y-110419978D01*
X120812982Y-110418733D01*
X120809755Y-110418308D01*
X120792878Y-110413785D01*
X120739566Y-110399500D01*
X120739564Y-110399500D01*
X120739562Y-110399500D01*
X120660438Y-110399500D01*
X120660436Y-110399500D01*
X120660434Y-110399500D01*
X120590242Y-110418309D01*
X120590237Y-110418309D01*
X120590238Y-110418310D01*
X120584006Y-110419979D01*
X120513581Y-110460641D01*
X120510924Y-110464104D01*
X120464104Y-110510924D01*
X120460641Y-110513581D01*
X120419979Y-110584006D01*
X120418310Y-110590238D01*
X120418309Y-110590242D01*
X120399500Y-110660434D01*
X120399500Y-110739563D01*
X120399499Y-110739563D01*
X112163544Y-110739563D01*
X112156239Y-110735541D01*
X112019830Y-110660434D01*
X111799576Y-110539161D01*
X111798119Y-110538325D01*
X111796715Y-110537488D01*
X111795304Y-110536615D01*
X111729853Y-110494529D01*
X111729853Y-110494528D01*
X111729852Y-110494528D01*
X111358117Y-110255491D01*
X111356739Y-110254572D01*
X111355342Y-110253604D01*
X111354005Y-110252644D01*
X111089002Y-110055499D01*
X110937000Y-109942418D01*
X110935694Y-109941412D01*
X110934375Y-109940360D01*
X110933071Y-109939283D01*
X110926184Y-109933390D01*
X110538148Y-109601367D01*
X110536891Y-109600253D01*
X110535662Y-109599126D01*
X110534461Y-109597987D01*
X110237503Y-109306608D01*
X110214468Y-109284006D01*
X110163465Y-109233961D01*
X110162293Y-109232771D01*
X110161152Y-109231572D01*
X110160028Y-109230350D01*
X110022488Y-109075645D01*
X109814660Y-108841881D01*
X109813597Y-108840643D01*
X109812504Y-108839326D01*
X109811478Y-108838043D01*
X109811311Y-108837827D01*
X109811270Y-108837774D01*
X109811270Y-108837773D01*
X109798240Y-108820935D01*
X111199500Y-108820935D01*
X111199500Y-108979063D01*
X111240309Y-109131362D01*
X111240412Y-109131761D01*
X111240422Y-109131785D01*
X111314817Y-109260641D01*
X111319475Y-109268709D01*
X111319478Y-109268713D01*
X111319480Y-109268716D01*
X111431284Y-109380520D01*
X111431287Y-109380521D01*
X111431290Y-109380524D01*
X111431315Y-109380538D01*
X111431919Y-109380912D01*
X111431919Y-109380913D01*
X111434542Y-109382533D01*
X111435573Y-109382997D01*
X111495333Y-109417499D01*
X111568214Y-109459577D01*
X111609884Y-109470742D01*
X111661271Y-109484511D01*
X111717852Y-109499671D01*
X111720290Y-109500500D01*
X111879060Y-109500500D01*
X111885854Y-109500500D01*
X111891740Y-109497101D01*
X112031784Y-109459577D01*
X112035862Y-109457223D01*
X112039712Y-109455000D01*
X118020000Y-109455000D01*
X118020000Y-110155000D01*
X125620000Y-110155000D01*
X125620000Y-109504000D01*
X125634352Y-109469352D01*
X125655877Y-109460436D01*
X128799500Y-109460436D01*
X128799500Y-109539563D01*
X128800028Y-109541534D01*
X128800028Y-109541537D01*
X128815460Y-109599126D01*
X128819979Y-109615989D01*
X128819979Y-109615991D01*
X128847158Y-109663065D01*
X128847717Y-109664034D01*
X128847718Y-109664035D01*
X128859536Y-109684505D01*
X128859538Y-109684507D01*
X128859540Y-109684511D01*
X128915489Y-109740460D01*
X128984011Y-109780021D01*
X129019476Y-109789523D01*
X129019477Y-109789524D01*
X129039957Y-109795012D01*
X129060436Y-109800500D01*
X129060438Y-109800500D01*
X129139559Y-109800500D01*
X129139560Y-109800500D01*
X129139562Y-109800500D01*
X129140745Y-109800182D01*
X129159829Y-109798928D01*
X129173578Y-109800737D01*
X129201830Y-109814670D01*
X129419748Y-110032587D01*
X129419749Y-110032587D01*
X129419750Y-110032588D01*
X129426939Y-110035565D01*
X129426944Y-110035567D01*
X129435947Y-110039296D01*
X129435949Y-110039298D01*
X129435949Y-110039297D01*
X129444956Y-110043028D01*
X129444957Y-110043029D01*
X129475059Y-110055499D01*
X129475063Y-110055499D01*
X129475064Y-110055500D01*
X131160754Y-110055500D01*
X131179500Y-110059227D01*
X131186394Y-110062083D01*
X131212914Y-110088598D01*
X131215772Y-110095499D01*
X131219501Y-110114247D01*
X131219501Y-110264898D01*
X131220160Y-110268213D01*
X131224125Y-110288153D01*
X131225331Y-110294213D01*
X131225331Y-110294214D01*
X131225332Y-110294215D01*
X131225332Y-110294216D01*
X131225695Y-110294759D01*
X131225914Y-110295671D01*
X131228011Y-110298226D01*
X131247538Y-110327451D01*
X131247542Y-110327456D01*
X131247543Y-110327457D01*
X131280787Y-110349669D01*
X131310101Y-110355500D01*
X132529898Y-110355499D01*
X132559213Y-110349669D01*
X132592457Y-110327457D01*
X132614669Y-110294213D01*
X132620500Y-110264899D01*
X132620499Y-109545102D01*
X132614669Y-109515787D01*
X132614667Y-109515784D01*
X132614667Y-109515783D01*
X132592459Y-109482545D01*
X132592457Y-109482544D01*
X132592457Y-109482543D01*
X132581605Y-109475292D01*
X132566042Y-109458431D01*
X132563371Y-109453646D01*
X132563370Y-109453645D01*
X132563155Y-109453259D01*
X132557886Y-109419809D01*
X132558346Y-109417499D01*
X132579182Y-109386325D01*
X132592457Y-109377457D01*
X132592459Y-109377453D01*
X132592461Y-109377452D01*
X132614668Y-109344216D01*
X132614669Y-109344212D01*
X132620499Y-109314904D01*
X132620500Y-109314899D01*
X132620499Y-108595102D01*
X132614669Y-108565787D01*
X132614667Y-108565784D01*
X132614667Y-108565783D01*
X132592457Y-108532543D01*
X132590582Y-108531290D01*
X132559214Y-108510331D01*
X132559213Y-108510330D01*
X132559212Y-108510330D01*
X132529901Y-108504500D01*
X132529898Y-108504500D01*
X131310032Y-108504500D01*
X131309246Y-108504671D01*
X131298214Y-108506865D01*
X131285517Y-108509390D01*
X131283100Y-108509628D01*
X131282250Y-108509886D01*
X131282249Y-108509885D01*
X131280787Y-108510329D01*
X131247541Y-108532543D01*
X131225330Y-108565784D01*
X131224625Y-108568107D01*
X131224388Y-108570522D01*
X131219500Y-108595091D01*
X131219500Y-109314896D01*
X131219535Y-109315188D01*
X131219732Y-109316062D01*
X131224390Y-109339480D01*
X131224723Y-109342867D01*
X131225582Y-109345266D01*
X131228011Y-109348226D01*
X131247538Y-109377451D01*
X131247539Y-109377452D01*
X131247542Y-109377456D01*
X131247543Y-109377457D01*
X131255839Y-109383000D01*
X131257101Y-109383843D01*
X131270621Y-109397364D01*
X131274764Y-109403565D01*
X131282082Y-109440331D01*
X131281656Y-109442476D01*
X131260830Y-109473665D01*
X131260818Y-109473673D01*
X131247542Y-109482543D01*
X131225329Y-109515785D01*
X131224626Y-109518105D01*
X131224388Y-109520522D01*
X131219500Y-109545091D01*
X131219500Y-109695752D01*
X131215771Y-109714503D01*
X131212916Y-109721396D01*
X131186398Y-109747914D01*
X131179503Y-109750770D01*
X131160753Y-109754500D01*
X130775059Y-109754500D01*
X130756307Y-109750770D01*
X130751433Y-109748751D01*
X130724914Y-109722232D01*
X130724914Y-109684730D01*
X130725360Y-109683655D01*
X130746120Y-109659999D01*
X130748526Y-109658610D01*
X130779965Y-109640460D01*
X130835914Y-109584511D01*
X130875475Y-109515989D01*
X130895748Y-109440331D01*
X130895954Y-109439563D01*
X130895954Y-109360437D01*
X130887297Y-109328134D01*
X130887297Y-109328132D01*
X130877143Y-109290238D01*
X130875475Y-109284011D01*
X130875474Y-109284009D01*
X130875474Y-109284008D01*
X130866644Y-109268715D01*
X130849777Y-109239500D01*
X130835917Y-109215494D01*
X130835916Y-109215493D01*
X130835914Y-109215489D01*
X130779965Y-109159540D01*
X130711446Y-109119979D01*
X130711442Y-109119978D01*
X130635020Y-109099500D01*
X130635018Y-109099500D01*
X130635016Y-109099500D01*
X130555892Y-109099500D01*
X130555890Y-109099500D01*
X130555888Y-109099500D01*
X130485696Y-109118309D01*
X130485691Y-109118309D01*
X130485692Y-109118310D01*
X130479460Y-109119979D01*
X130409035Y-109160641D01*
X130406378Y-109164104D01*
X130359558Y-109210924D01*
X130356095Y-109213581D01*
X130315433Y-109284006D01*
X130313764Y-109290238D01*
X130313763Y-109290242D01*
X130294954Y-109360434D01*
X130294954Y-109439564D01*
X130312342Y-109504456D01*
X130312343Y-109504458D01*
X130315433Y-109515989D01*
X130315433Y-109515991D01*
X130348987Y-109574106D01*
X130349455Y-109574917D01*
X130349461Y-109574928D01*
X130354991Y-109584507D01*
X130354993Y-109584509D01*
X130354994Y-109584511D01*
X130410943Y-109640460D01*
X130441640Y-109658183D01*
X130442350Y-109658601D01*
X130442365Y-109658610D01*
X130456027Y-109670795D01*
X130459238Y-109674979D01*
X130468947Y-109711203D01*
X130450215Y-109743670D01*
X130449315Y-109744360D01*
X130419469Y-109754500D01*
X129597382Y-109754500D01*
X129578631Y-109750770D01*
X129561988Y-109743876D01*
X129546094Y-109733255D01*
X129417231Y-109604391D01*
X129406609Y-109588494D01*
X129401303Y-109575684D01*
X129399244Y-109544247D01*
X129400500Y-109539562D01*
X129400500Y-109460438D01*
X129400500Y-109460436D01*
X129388590Y-109415990D01*
X129380021Y-109384011D01*
X129380021Y-109384010D01*
X129380020Y-109384007D01*
X129357652Y-109345266D01*
X129340459Y-109315488D01*
X129284511Y-109259540D01*
X129215992Y-109219979D01*
X129215988Y-109219978D01*
X129139566Y-109199500D01*
X129139564Y-109199500D01*
X129139562Y-109199500D01*
X129060438Y-109199500D01*
X129060436Y-109199500D01*
X129060434Y-109199500D01*
X128990242Y-109218309D01*
X128990237Y-109218309D01*
X128990238Y-109218310D01*
X128984006Y-109219979D01*
X128913581Y-109260641D01*
X128910924Y-109264104D01*
X128864104Y-109310924D01*
X128860641Y-109313581D01*
X128819979Y-109384006D01*
X128819189Y-109386955D01*
X128819188Y-109386960D01*
X128799500Y-109460436D01*
X125655877Y-109460436D01*
X125669000Y-109455000D01*
X126920000Y-109455000D01*
X126920000Y-108550435D01*
X129022000Y-108550435D01*
X129022000Y-108629562D01*
X129022528Y-108631533D01*
X129022528Y-108631536D01*
X129040809Y-108699755D01*
X129040810Y-108699760D01*
X129042479Y-108705991D01*
X129077364Y-108766412D01*
X129082036Y-108774504D01*
X129082038Y-108774506D01*
X129082040Y-108774510D01*
X129137989Y-108830459D01*
X129206511Y-108870020D01*
X129241976Y-108879522D01*
X129241977Y-108879523D01*
X129262457Y-108885011D01*
X129282936Y-108890499D01*
X129282938Y-108890499D01*
X129362063Y-108890499D01*
X129362064Y-108890499D01*
X129388730Y-108883353D01*
X129438489Y-108870020D01*
X129507011Y-108830459D01*
X129562960Y-108774510D01*
X129585605Y-108735288D01*
X129602520Y-108705990D01*
X129602520Y-108705989D01*
X129602521Y-108705988D01*
X129616391Y-108654226D01*
X129623000Y-108629563D01*
X129623000Y-108550433D01*
X129605711Y-108485917D01*
X129605335Y-108484512D01*
X129602521Y-108474010D01*
X129602520Y-108474008D01*
X129602520Y-108474007D01*
X129569024Y-108415991D01*
X129562960Y-108405488D01*
X129507011Y-108349539D01*
X129507009Y-108349538D01*
X129507007Y-108349536D01*
X129491221Y-108340423D01*
X129489730Y-108339562D01*
X129438490Y-108309978D01*
X129438489Y-108309977D01*
X129438488Y-108309977D01*
X129362066Y-108289499D01*
X129362064Y-108289499D01*
X129362062Y-108289499D01*
X129282938Y-108289499D01*
X129282936Y-108289499D01*
X129282934Y-108289499D01*
X129212742Y-108308308D01*
X129212737Y-108308308D01*
X129212738Y-108308309D01*
X129206506Y-108309978D01*
X129136081Y-108350640D01*
X129133424Y-108354103D01*
X129086604Y-108400923D01*
X129083141Y-108403580D01*
X129042479Y-108474005D01*
X129041689Y-108476954D01*
X129041688Y-108476959D01*
X129022000Y-108550435D01*
X126920000Y-108550435D01*
X126920000Y-107126653D01*
X128303929Y-107126653D01*
X128303929Y-107205780D01*
X128304457Y-107207751D01*
X128304457Y-107207754D01*
X128322738Y-107275973D01*
X128322739Y-107275978D01*
X128324408Y-107282209D01*
X128334969Y-107300500D01*
X128363969Y-107350728D01*
X128419918Y-107406677D01*
X128426249Y-107410332D01*
X128488436Y-107446236D01*
X128488440Y-107446238D01*
X128516859Y-107453853D01*
X128564865Y-107466717D01*
X128564867Y-107466717D01*
X128643988Y-107466717D01*
X128643989Y-107466717D01*
X128643991Y-107466717D01*
X128645174Y-107466399D01*
X128664258Y-107465145D01*
X128678007Y-107466954D01*
X128706259Y-107480887D01*
X129207957Y-107982585D01*
X129207958Y-107982585D01*
X129207960Y-107982587D01*
X129223667Y-107989093D01*
X129263276Y-108005500D01*
X130517734Y-108005500D01*
X131160754Y-108005500D01*
X131179500Y-108009227D01*
X131186394Y-108012083D01*
X131212914Y-108038598D01*
X131215772Y-108045499D01*
X131219501Y-108064247D01*
X131219501Y-108214898D01*
X131225331Y-108244213D01*
X131225331Y-108244214D01*
X131225332Y-108244215D01*
X131225332Y-108244216D01*
X131225695Y-108244759D01*
X131225914Y-108245671D01*
X131228011Y-108248226D01*
X131247538Y-108277451D01*
X131247542Y-108277456D01*
X131247543Y-108277457D01*
X131280787Y-108299669D01*
X131310101Y-108305500D01*
X132529898Y-108305499D01*
X132559213Y-108299669D01*
X132592457Y-108277457D01*
X132614669Y-108244213D01*
X132615835Y-108238350D01*
X132620500Y-108214903D01*
X132620499Y-108214901D01*
X132620500Y-108214899D01*
X132620499Y-107495102D01*
X132614669Y-107465787D01*
X132614667Y-107465784D01*
X132614667Y-107465783D01*
X132592457Y-107432543D01*
X132559215Y-107410332D01*
X132559214Y-107410331D01*
X132559213Y-107410330D01*
X132559212Y-107410330D01*
X132529901Y-107404500D01*
X132529898Y-107404500D01*
X131310032Y-107404500D01*
X131309246Y-107404671D01*
X131299165Y-107406676D01*
X131285517Y-107409390D01*
X131283100Y-107409628D01*
X131282250Y-107409886D01*
X131282249Y-107409885D01*
X131280787Y-107410329D01*
X131247541Y-107432543D01*
X131225330Y-107465784D01*
X131224625Y-107468107D01*
X131224388Y-107470522D01*
X131219500Y-107495091D01*
X131219500Y-107645752D01*
X131215771Y-107664503D01*
X131212916Y-107671396D01*
X131186398Y-107697914D01*
X131179503Y-107700770D01*
X131160753Y-107704500D01*
X129385594Y-107704500D01*
X129366843Y-107700770D01*
X129350200Y-107693876D01*
X129334306Y-107683255D01*
X129037645Y-107386593D01*
X129006207Y-107355155D01*
X134936558Y-107355155D01*
X134936558Y-107358139D01*
X134936558Y-107434283D01*
X134946269Y-107470522D01*
X134957037Y-107510708D01*
X134957037Y-107510710D01*
X134992585Y-107572279D01*
X134993037Y-107573062D01*
X134993045Y-107573077D01*
X134996595Y-107579226D01*
X134996597Y-107579228D01*
X134996598Y-107579230D01*
X135052547Y-107635179D01*
X135121069Y-107674740D01*
X135156534Y-107684242D01*
X135156535Y-107684243D01*
X135177015Y-107689731D01*
X135197494Y-107695219D01*
X135197496Y-107695219D01*
X135276621Y-107695219D01*
X135276622Y-107695219D01*
X135303288Y-107688073D01*
X135353047Y-107674740D01*
X135421569Y-107635179D01*
X135477518Y-107579230D01*
X135481021Y-107573161D01*
X135493630Y-107558782D01*
X135504632Y-107550342D01*
X135534458Y-107540219D01*
X135708575Y-107540219D01*
X135708577Y-107540219D01*
X135762054Y-107518068D01*
X135904152Y-107375969D01*
X135920043Y-107365351D01*
X135936688Y-107358456D01*
X135955437Y-107354728D01*
X136204063Y-107354728D01*
X136204065Y-107354728D01*
X136257542Y-107332577D01*
X136257544Y-107332575D01*
X137592256Y-105997863D01*
X138399500Y-105997863D01*
X138399500Y-105997867D01*
X138399500Y-105997868D01*
X138399500Y-105997870D01*
X138399500Y-106402128D01*
X138411775Y-106463840D01*
X138415485Y-106482495D01*
X138476372Y-106573621D01*
X138476375Y-106573624D01*
X138510681Y-106596546D01*
X138567505Y-106634515D01*
X138647867Y-106650500D01*
X140152132Y-106650499D01*
X140232495Y-106634515D01*
X140323624Y-106573624D01*
X140384515Y-106482495D01*
X140400500Y-106402133D01*
X140400500Y-106376074D01*
X141099500Y-106376074D01*
X141099500Y-106523924D01*
X141128332Y-106668869D01*
X141128340Y-106668906D01*
X141128342Y-106668915D01*
X141167771Y-106764104D01*
X141184914Y-106805491D01*
X141184916Y-106805496D01*
X141203424Y-106833194D01*
X141214138Y-106849229D01*
X141261110Y-106919529D01*
X141261112Y-106919531D01*
X141267047Y-106928414D01*
X141267048Y-106928415D01*
X141267049Y-106928416D01*
X141371584Y-107032951D01*
X141494505Y-107115084D01*
X141495884Y-107115655D01*
X141496694Y-107115991D01*
X141496693Y-107115991D01*
X141589082Y-107154259D01*
X141631084Y-107171657D01*
X141631085Y-107171657D01*
X141631087Y-107171658D01*
X141631090Y-107171658D01*
X141631091Y-107171659D01*
X141695682Y-107184507D01*
X141776082Y-107200500D01*
X141923918Y-107200500D01*
X142068913Y-107171658D01*
X142205495Y-107115084D01*
X142328416Y-107032951D01*
X142432951Y-106928416D01*
X142515084Y-106805495D01*
X142571658Y-106668913D01*
X142600500Y-106523918D01*
X142600500Y-106376082D01*
X142571658Y-106231087D01*
X142558988Y-106200500D01*
X142532902Y-106137522D01*
X142515084Y-106094505D01*
X142462621Y-106015989D01*
X142432951Y-105971583D01*
X142328418Y-105867050D01*
X142312792Y-105856610D01*
X142312793Y-105856610D01*
X142312791Y-105856609D01*
X142267396Y-105826277D01*
X142205495Y-105784916D01*
X142205492Y-105784914D01*
X142205474Y-105784902D01*
X142205474Y-105784901D01*
X142205081Y-105784640D01*
X142203255Y-105783987D01*
X142068923Y-105728345D01*
X142068919Y-105728343D01*
X142068915Y-105728342D01*
X142068912Y-105728341D01*
X142068908Y-105728340D01*
X142068869Y-105728332D01*
X141923924Y-105699500D01*
X141923921Y-105699500D01*
X141923918Y-105699500D01*
X141776082Y-105699500D01*
X141776078Y-105699500D01*
X141776074Y-105699500D01*
X141631129Y-105728332D01*
X141631090Y-105728340D01*
X141631085Y-105728341D01*
X141631084Y-105728342D01*
X141631080Y-105728343D01*
X141631079Y-105728344D01*
X141494509Y-105784913D01*
X141371583Y-105867048D01*
X141267048Y-105971583D01*
X141184913Y-106094509D01*
X141128344Y-106231079D01*
X141128340Y-106231090D01*
X141128332Y-106231129D01*
X141099500Y-106376074D01*
X140400500Y-106376074D01*
X140400499Y-106290242D01*
X140400499Y-106198529D01*
X140400499Y-105997871D01*
X140400499Y-105997870D01*
X140400499Y-105997868D01*
X140384515Y-105917505D01*
X140350801Y-105867049D01*
X140350801Y-105867048D01*
X140323624Y-105826374D01*
X140260217Y-105784008D01*
X140260216Y-105784008D01*
X140232495Y-105765485D01*
X140152133Y-105749500D01*
X140152130Y-105749500D01*
X138647874Y-105749500D01*
X138647871Y-105749500D01*
X138587595Y-105761488D01*
X138567503Y-105765485D01*
X138476377Y-105826372D01*
X138476372Y-105826377D01*
X138418169Y-105913488D01*
X138416627Y-105915366D01*
X138415485Y-105917503D01*
X138399500Y-105997863D01*
X137592256Y-105997863D01*
X137629307Y-105960812D01*
X138223376Y-105366741D01*
X138239267Y-105356123D01*
X138255912Y-105349228D01*
X138274661Y-105345500D01*
X138340754Y-105345500D01*
X138359500Y-105349227D01*
X138366394Y-105352083D01*
X138392914Y-105378598D01*
X138395772Y-105385499D01*
X138398616Y-105399798D01*
X138399265Y-105399735D01*
X138399500Y-105402127D01*
X138414544Y-105477762D01*
X138414781Y-105480175D01*
X138415484Y-105482494D01*
X138476372Y-105573621D01*
X138476373Y-105573621D01*
X138476375Y-105573624D01*
X138501779Y-105590598D01*
X138567505Y-105634515D01*
X138647867Y-105650500D01*
X140152132Y-105650499D01*
X140232495Y-105634515D01*
X140323624Y-105573624D01*
X140384515Y-105482495D01*
X140400500Y-105402133D01*
X140400499Y-104997868D01*
X140384515Y-104917505D01*
X140382770Y-104914894D01*
X140364309Y-104887266D01*
X140364308Y-104887264D01*
X140323626Y-104826377D01*
X140323621Y-104826372D01*
X140249291Y-104776708D01*
X140232495Y-104765485D01*
X140152133Y-104749500D01*
X140152130Y-104749500D01*
X138647874Y-104749500D01*
X138647871Y-104749500D01*
X138600757Y-104758871D01*
X138567502Y-104765485D01*
X138567500Y-104765486D01*
X138539825Y-104783978D01*
X138522165Y-104791294D01*
X138515053Y-104792709D01*
X138478270Y-104785394D01*
X138458600Y-104758871D01*
X138457609Y-104755603D01*
X138455500Y-104741383D01*
X138455500Y-103830308D01*
X138459230Y-103811557D01*
X138466122Y-103794918D01*
X138476741Y-103779025D01*
X138586925Y-103668840D01*
X138602814Y-103658223D01*
X138616298Y-103652638D01*
X138644612Y-103649852D01*
X138647867Y-103650500D01*
X140152132Y-103650499D01*
X140232495Y-103634515D01*
X140323624Y-103573624D01*
X140384515Y-103482495D01*
X140400500Y-103402133D01*
X140400499Y-102997868D01*
X140384515Y-102917505D01*
X140351003Y-102867351D01*
X140340786Y-102852060D01*
X140323624Y-102826374D01*
X140248899Y-102776446D01*
X140232495Y-102765485D01*
X140152133Y-102749500D01*
X140152130Y-102749500D01*
X138647874Y-102749500D01*
X138647871Y-102749500D01*
X138587595Y-102761488D01*
X138567503Y-102765485D01*
X138476377Y-102826372D01*
X138476374Y-102826375D01*
X138437248Y-102884934D01*
X138428504Y-102898021D01*
X138415485Y-102917505D01*
X138399500Y-102997867D01*
X138399500Y-102997868D01*
X138399500Y-102997870D01*
X138399500Y-103407835D01*
X138399304Y-103407835D01*
X138399547Y-103421587D01*
X138396711Y-103435841D01*
X138383302Y-103460927D01*
X138320425Y-103523806D01*
X138261646Y-103582586D01*
X138227581Y-103616651D01*
X138209718Y-103634514D01*
X138191757Y-103652474D01*
X138186650Y-103657581D01*
X138164500Y-103711054D01*
X138164500Y-104715338D01*
X138160770Y-104734091D01*
X138153877Y-104750731D01*
X138143255Y-104766626D01*
X136057398Y-106852483D01*
X136041504Y-106863104D01*
X136024865Y-106869997D01*
X136006111Y-106873728D01*
X135868242Y-106873728D01*
X135849488Y-106869997D01*
X135836678Y-106864690D01*
X135812998Y-106843923D01*
X135809805Y-106838394D01*
X135807682Y-106834717D01*
X135751733Y-106778768D01*
X135718429Y-106759540D01*
X135683212Y-106739207D01*
X135683211Y-106739206D01*
X135683210Y-106739206D01*
X135606788Y-106718728D01*
X135606786Y-106718728D01*
X135606784Y-106718728D01*
X135527660Y-106718728D01*
X135527658Y-106718728D01*
X135527656Y-106718728D01*
X135457464Y-106737537D01*
X135457459Y-106737537D01*
X135457460Y-106737538D01*
X135451228Y-106739207D01*
X135380803Y-106779869D01*
X135378146Y-106783332D01*
X135331326Y-106830152D01*
X135327863Y-106832809D01*
X135287201Y-106903234D01*
X135285532Y-106909466D01*
X135285531Y-106909470D01*
X135266722Y-106979662D01*
X135266722Y-107035471D01*
X135262993Y-107054222D01*
X135260138Y-107061115D01*
X135233620Y-107087633D01*
X135226725Y-107090489D01*
X135207975Y-107094219D01*
X135197492Y-107094219D01*
X135127300Y-107113028D01*
X135127295Y-107113028D01*
X135127296Y-107113029D01*
X135121064Y-107114698D01*
X135050639Y-107155360D01*
X135047982Y-107158823D01*
X135001162Y-107205643D01*
X134997699Y-107208300D01*
X134957037Y-107278725D01*
X134955432Y-107284716D01*
X134955414Y-107284783D01*
X134936558Y-107355155D01*
X129006207Y-107355155D01*
X128921660Y-107270608D01*
X128911038Y-107254711D01*
X128905732Y-107241901D01*
X128903673Y-107210464D01*
X128904929Y-107205779D01*
X128904929Y-107126655D01*
X128904929Y-107126653D01*
X128904929Y-107126651D01*
X128892392Y-107079867D01*
X128892392Y-107079866D01*
X128884451Y-107050231D01*
X128884449Y-107050225D01*
X128854221Y-106997869D01*
X128844889Y-106981706D01*
X128823619Y-106960436D01*
X130719498Y-106960436D01*
X130719498Y-107039563D01*
X130720026Y-107041534D01*
X130720026Y-107041537D01*
X130735237Y-107098299D01*
X130739977Y-107115989D01*
X130739977Y-107115991D01*
X130772117Y-107171657D01*
X130772604Y-107172502D01*
X130772608Y-107172508D01*
X130779535Y-107184507D01*
X130779537Y-107184509D01*
X130779538Y-107184511D01*
X130835487Y-107240460D01*
X130841120Y-107243712D01*
X130901767Y-107278727D01*
X130904009Y-107280021D01*
X130939474Y-107289523D01*
X130939475Y-107289524D01*
X130959955Y-107295012D01*
X130980434Y-107300500D01*
X130980436Y-107300500D01*
X131059561Y-107300500D01*
X131059562Y-107300500D01*
X131086228Y-107293354D01*
X131135987Y-107280021D01*
X131204509Y-107240460D01*
X131260458Y-107184511D01*
X131293862Y-107126653D01*
X131300019Y-107115990D01*
X131300020Y-107115985D01*
X131300262Y-107115084D01*
X131304759Y-107098299D01*
X131316865Y-107053122D01*
X131316865Y-107053120D01*
X131317483Y-107050816D01*
X131320498Y-107039563D01*
X131320498Y-106960436D01*
X131300604Y-106886196D01*
X131300019Y-106884011D01*
X131300018Y-106884009D01*
X131300018Y-106884008D01*
X131271559Y-106834716D01*
X131260458Y-106815489D01*
X131204509Y-106759540D01*
X131204507Y-106759539D01*
X131204505Y-106759537D01*
X131193720Y-106753311D01*
X131187119Y-106749500D01*
X131135988Y-106719979D01*
X131135987Y-106719978D01*
X131135986Y-106719978D01*
X131059564Y-106699500D01*
X131059562Y-106699500D01*
X131059560Y-106699500D01*
X130980436Y-106699500D01*
X130980434Y-106699500D01*
X130980432Y-106699500D01*
X130910240Y-106718309D01*
X130910235Y-106718309D01*
X130910236Y-106718310D01*
X130904004Y-106719979D01*
X130833579Y-106760641D01*
X130830922Y-106764104D01*
X130784102Y-106810924D01*
X130780639Y-106813581D01*
X130739977Y-106884006D01*
X130739187Y-106886955D01*
X130739186Y-106886960D01*
X130719498Y-106960436D01*
X128823619Y-106960436D01*
X128788940Y-106925757D01*
X128720421Y-106886196D01*
X128720417Y-106886195D01*
X128643995Y-106865717D01*
X128643993Y-106865717D01*
X128643991Y-106865717D01*
X128564867Y-106865717D01*
X128564865Y-106865717D01*
X128564863Y-106865717D01*
X128494671Y-106884526D01*
X128494666Y-106884526D01*
X128494667Y-106884527D01*
X128488435Y-106886196D01*
X128418010Y-106926858D01*
X128415353Y-106930321D01*
X128368533Y-106977141D01*
X128365070Y-106979798D01*
X128324408Y-107050223D01*
X128323618Y-107053172D01*
X128323617Y-107053177D01*
X128303929Y-107126653D01*
X126920000Y-107126653D01*
X126920000Y-106383892D01*
X132764369Y-106383892D01*
X132764369Y-106463019D01*
X132764897Y-106464990D01*
X132764897Y-106464993D01*
X132781732Y-106527817D01*
X132784848Y-106539445D01*
X132784848Y-106539447D01*
X132823310Y-106606063D01*
X132824409Y-106607967D01*
X132880358Y-106663916D01*
X132889017Y-106668915D01*
X132943723Y-106700500D01*
X132948880Y-106703477D01*
X132984345Y-106712979D01*
X132984346Y-106712980D01*
X133004233Y-106718309D01*
X133025305Y-106723956D01*
X133025307Y-106723956D01*
X133104432Y-106723956D01*
X133104433Y-106723956D01*
X133131099Y-106716810D01*
X133180858Y-106703477D01*
X133249380Y-106663916D01*
X133305329Y-106607967D01*
X133305330Y-106607966D01*
X133307603Y-106605693D01*
X133308007Y-106606097D01*
X133312420Y-106601462D01*
X133320077Y-106595586D01*
X133356296Y-106585875D01*
X133356299Y-106585875D01*
X133356300Y-106585876D01*
X133362267Y-106586661D01*
X133383099Y-106594500D01*
X133386161Y-106596546D01*
X133456281Y-106610495D01*
X133456295Y-106610496D01*
X133456306Y-106610499D01*
X133456312Y-106610500D01*
X133783687Y-106610500D01*
X133783688Y-106610500D01*
X133796412Y-106607969D01*
X133849110Y-106597487D01*
X133849111Y-106597487D01*
X133851514Y-106597250D01*
X133851527Y-106597247D01*
X133855846Y-106596164D01*
X133859879Y-106592510D01*
X133871848Y-106584513D01*
X133888149Y-106573621D01*
X133933390Y-106543392D01*
X133936028Y-106539445D01*
X133986546Y-106463839D01*
X133986710Y-106463019D01*
X134000499Y-106393693D01*
X134000500Y-106393688D01*
X134000500Y-106006312D01*
X134000499Y-106006306D01*
X133998820Y-105997867D01*
X133986547Y-105936164D01*
X133986547Y-105936163D01*
X133933391Y-105856607D01*
X133853837Y-105803452D01*
X133829654Y-105798642D01*
X133783693Y-105789500D01*
X133783690Y-105789500D01*
X133456309Y-105789500D01*
X133456306Y-105789500D01*
X133414220Y-105797871D01*
X133386161Y-105803452D01*
X133306607Y-105856607D01*
X133253452Y-105936161D01*
X133252383Y-105941537D01*
X133239500Y-106006306D01*
X133239500Y-106006309D01*
X133239500Y-106085542D01*
X133235771Y-106104293D01*
X133232916Y-106111186D01*
X133206397Y-106137705D01*
X133206395Y-106137706D01*
X133203331Y-106138975D01*
X133171898Y-106141034D01*
X133104435Y-106122956D01*
X133104433Y-106122956D01*
X133104431Y-106122956D01*
X133025307Y-106122956D01*
X133025305Y-106122956D01*
X133025303Y-106122956D01*
X132955111Y-106141765D01*
X132955106Y-106141765D01*
X132955107Y-106141766D01*
X132948875Y-106143435D01*
X132878450Y-106184097D01*
X132875793Y-106187560D01*
X132828973Y-106234380D01*
X132825510Y-106237037D01*
X132784848Y-106307462D01*
X132784058Y-106310411D01*
X132784057Y-106310416D01*
X132764369Y-106383892D01*
X126920000Y-106383892D01*
X126920000Y-105351137D01*
X126934352Y-105316489D01*
X126969000Y-105302137D01*
X127003648Y-105316489D01*
X127469743Y-105782584D01*
X127469752Y-105782590D01*
X127473187Y-105784013D01*
X127473188Y-105784013D01*
X127502149Y-105796008D01*
X127502150Y-105796009D01*
X127502151Y-105796009D01*
X127525064Y-105805500D01*
X127978411Y-105805500D01*
X127997157Y-105809227D01*
X128004051Y-105812083D01*
X128030571Y-105838598D01*
X128033429Y-105845499D01*
X128037158Y-105864247D01*
X128037158Y-106004536D01*
X128052277Y-106051071D01*
X128059720Y-106073978D01*
X128078385Y-106099667D01*
X128102638Y-106133049D01*
X128139099Y-106159539D01*
X128139100Y-106159540D01*
X128146573Y-106164970D01*
X128158592Y-106173702D01*
X128160061Y-106174956D01*
X128160063Y-106174958D01*
X128161443Y-106175880D01*
X128161709Y-106175966D01*
X128161710Y-106175967D01*
X128186025Y-106183866D01*
X128186026Y-106183867D01*
X128203431Y-106189522D01*
X128231151Y-106198529D01*
X128231153Y-106198529D01*
X128344164Y-106198529D01*
X128344165Y-106198529D01*
X128378219Y-106187463D01*
X128378221Y-106187463D01*
X128378221Y-106187462D01*
X128378222Y-106187462D01*
X128413606Y-106175967D01*
X128472678Y-106133049D01*
X128515596Y-106073977D01*
X128534789Y-106014904D01*
X128534791Y-106014898D01*
X128538158Y-106004537D01*
X128538158Y-105864247D01*
X128541885Y-105845502D01*
X128544741Y-105838606D01*
X128571252Y-105812088D01*
X128578160Y-105809226D01*
X128596905Y-105805500D01*
X131160754Y-105805500D01*
X131179500Y-105809227D01*
X131186394Y-105812083D01*
X131212914Y-105838598D01*
X131215772Y-105845499D01*
X131219501Y-105864247D01*
X131219501Y-106014898D01*
X131225331Y-106044213D01*
X131225331Y-106044214D01*
X131225332Y-106044215D01*
X131225332Y-106044216D01*
X131225695Y-106044759D01*
X131225914Y-106045671D01*
X131228011Y-106048226D01*
X131247538Y-106077451D01*
X131247542Y-106077456D01*
X131247543Y-106077457D01*
X131280787Y-106099669D01*
X131310101Y-106105500D01*
X132529898Y-106105499D01*
X132559213Y-106099669D01*
X132592457Y-106077457D01*
X132614669Y-106044213D01*
X132620283Y-106015991D01*
X132620500Y-106014902D01*
X132620499Y-106014900D01*
X132620500Y-106014899D01*
X132620499Y-105399279D01*
X132624226Y-105380534D01*
X132626246Y-105375657D01*
X132652762Y-105349138D01*
X132690263Y-105349135D01*
X132695144Y-105351156D01*
X132711039Y-105361778D01*
X132720196Y-105370935D01*
X132788718Y-105410496D01*
X132824183Y-105419998D01*
X132824184Y-105419999D01*
X132844664Y-105425487D01*
X132865143Y-105430975D01*
X132865145Y-105430975D01*
X132944270Y-105430975D01*
X132944271Y-105430975D01*
X132970937Y-105423829D01*
X133020696Y-105410496D01*
X133089218Y-105370935D01*
X133145167Y-105314986D01*
X133145171Y-105314978D01*
X133146452Y-105313310D01*
X133155499Y-105304261D01*
X133159986Y-105300818D01*
X133196211Y-105291116D01*
X133228670Y-105309846D01*
X133229360Y-105310746D01*
X133239500Y-105340593D01*
X133239500Y-105393693D01*
X133246916Y-105430975D01*
X133253452Y-105463837D01*
X133306604Y-105543386D01*
X133306605Y-105543387D01*
X133306608Y-105543391D01*
X133331373Y-105559938D01*
X133386161Y-105596546D01*
X133386163Y-105596547D01*
X133456306Y-105610499D01*
X133456312Y-105610500D01*
X133783683Y-105610500D01*
X133783688Y-105610500D01*
X133784625Y-105610313D01*
X133849112Y-105597486D01*
X133851514Y-105597250D01*
X133851521Y-105597248D01*
X133855846Y-105596164D01*
X133859879Y-105592510D01*
X133933390Y-105543392D01*
X133939159Y-105534758D01*
X133986546Y-105463839D01*
X133994505Y-105423830D01*
X134000499Y-105393693D01*
X134000500Y-105393688D01*
X134000500Y-105006312D01*
X134000499Y-105006306D01*
X134000339Y-105005500D01*
X133986548Y-104936165D01*
X133972338Y-104914898D01*
X133972336Y-104914895D01*
X133966437Y-104906065D01*
X133933390Y-104856606D01*
X133853837Y-104803452D01*
X133836300Y-104799964D01*
X133783693Y-104789500D01*
X133783690Y-104789500D01*
X133456309Y-104789500D01*
X133456306Y-104789500D01*
X133420058Y-104796710D01*
X133386161Y-104803452D01*
X133306612Y-104856604D01*
X133306607Y-104856608D01*
X133253451Y-104936164D01*
X133251949Y-104939791D01*
X133247419Y-104948264D01*
X133241485Y-104957143D01*
X133215020Y-104976791D01*
X133214754Y-104976872D01*
X133181729Y-104975267D01*
X133171304Y-104970949D01*
X133151261Y-104950907D01*
X133149591Y-104949942D01*
X133148169Y-104950822D01*
X133145562Y-104946605D01*
X133145558Y-104946598D01*
X133145191Y-104946004D01*
X133145171Y-104945970D01*
X133145168Y-104945967D01*
X133145167Y-104945964D01*
X133089218Y-104890015D01*
X133057002Y-104871415D01*
X133020697Y-104850454D01*
X133020696Y-104850453D01*
X133020695Y-104850453D01*
X132944273Y-104829975D01*
X132944271Y-104829975D01*
X132944269Y-104829975D01*
X132865145Y-104829975D01*
X132865143Y-104829975D01*
X132865141Y-104829975D01*
X132794949Y-104848784D01*
X132794944Y-104848784D01*
X132794945Y-104848785D01*
X132788713Y-104850454D01*
X132720198Y-104890013D01*
X132720194Y-104890016D01*
X132711037Y-104899173D01*
X132695146Y-104909791D01*
X132690273Y-104911810D01*
X132652770Y-104911814D01*
X132626249Y-104885298D01*
X132626248Y-104885297D01*
X132624226Y-104880416D01*
X132620499Y-104861669D01*
X132620499Y-104195105D01*
X132620499Y-104195102D01*
X132614669Y-104165787D01*
X132614667Y-104165784D01*
X132614667Y-104165783D01*
X132592457Y-104132543D01*
X132559215Y-104110332D01*
X132559214Y-104110331D01*
X132559213Y-104110330D01*
X132559212Y-104110330D01*
X132529901Y-104104500D01*
X132529898Y-104104500D01*
X131310032Y-104104500D01*
X131309246Y-104104671D01*
X131298214Y-104106865D01*
X131285517Y-104109390D01*
X131283100Y-104109628D01*
X131282250Y-104109886D01*
X131282249Y-104109885D01*
X131280787Y-104110329D01*
X131247541Y-104132543D01*
X131225330Y-104165784D01*
X131224625Y-104168107D01*
X131224388Y-104170522D01*
X131219500Y-104195091D01*
X131219500Y-104273002D01*
X131215782Y-104291722D01*
X131212154Y-104300499D01*
X131204459Y-104319110D01*
X131201612Y-104324886D01*
X131167479Y-104384005D01*
X131165810Y-104390238D01*
X131165809Y-104390242D01*
X131147000Y-104460434D01*
X131147000Y-104539564D01*
X131161467Y-104593555D01*
X131167479Y-104615989D01*
X131167479Y-104615991D01*
X131201972Y-104675733D01*
X131202418Y-104676579D01*
X131202440Y-104676819D01*
X131204344Y-104680679D01*
X131207471Y-104688228D01*
X131207471Y-104688229D01*
X131215770Y-104708262D01*
X131219500Y-104727015D01*
X131219500Y-104914895D01*
X131219535Y-104915188D01*
X131219732Y-104916062D01*
X131223730Y-104936165D01*
X131224390Y-104939480D01*
X131224723Y-104942866D01*
X131225581Y-104945264D01*
X131228008Y-104948220D01*
X131232853Y-104955471D01*
X131232854Y-104955474D01*
X131247539Y-104977452D01*
X131247543Y-104977457D01*
X131280787Y-104999669D01*
X131310101Y-105005500D01*
X132529898Y-105005499D01*
X132545725Y-105002351D01*
X132564839Y-105002351D01*
X132572155Y-105003806D01*
X132603338Y-105024641D01*
X132603347Y-105024654D01*
X132604159Y-105025870D01*
X132612384Y-105054650D01*
X132612356Y-105055524D01*
X132610711Y-105066637D01*
X132604207Y-105090909D01*
X132604207Y-105149826D01*
X132600478Y-105168575D01*
X132599276Y-105171480D01*
X132597623Y-105175470D01*
X132571104Y-105201989D01*
X132571103Y-105201989D01*
X132567373Y-105203534D01*
X132539064Y-105206323D01*
X132529899Y-105204500D01*
X132529897Y-105204500D01*
X131310032Y-105204500D01*
X131309246Y-105204671D01*
X131300940Y-105206323D01*
X131285517Y-105209390D01*
X131283100Y-105209628D01*
X131282250Y-105209886D01*
X131282249Y-105209885D01*
X131280787Y-105210329D01*
X131247541Y-105232543D01*
X131225330Y-105265784D01*
X131224625Y-105268107D01*
X131224388Y-105270522D01*
X131219500Y-105295091D01*
X131219500Y-105445752D01*
X131215771Y-105464503D01*
X131212916Y-105471396D01*
X131186398Y-105497914D01*
X131179503Y-105500770D01*
X131160753Y-105504500D01*
X128431149Y-105504500D01*
X128361707Y-105527062D01*
X128361702Y-105527064D01*
X128324342Y-105554209D01*
X128306978Y-105562213D01*
X128295472Y-105564975D01*
X128265306Y-105562608D01*
X128264235Y-105562165D01*
X128254168Y-105556531D01*
X128213607Y-105527062D01*
X128178886Y-105515781D01*
X128144166Y-105504500D01*
X128144165Y-105504500D01*
X128144163Y-105504500D01*
X128137594Y-105504500D01*
X127647383Y-105504500D01*
X127628632Y-105500770D01*
X127611989Y-105493876D01*
X127596095Y-105483255D01*
X127284320Y-105171480D01*
X127273698Y-105155583D01*
X127266805Y-105138942D01*
X127263076Y-105120192D01*
X127263076Y-103265479D01*
X127266804Y-103246731D01*
X127268823Y-103241856D01*
X127295339Y-103215337D01*
X127332842Y-103215334D01*
X127359362Y-103241850D01*
X127365556Y-103256805D01*
X127365558Y-103256809D01*
X127367402Y-103261260D01*
X127367402Y-103261261D01*
X127375464Y-103280723D01*
X127380824Y-103293664D01*
X127380824Y-103293665D01*
X127380825Y-103293666D01*
X127597660Y-103510499D01*
X127669748Y-103582587D01*
X127669749Y-103582587D01*
X127669750Y-103582588D01*
X127676939Y-103585565D01*
X127676944Y-103585567D01*
X127685947Y-103589296D01*
X127685949Y-103589298D01*
X127685949Y-103589297D01*
X127694956Y-103593028D01*
X127694957Y-103593029D01*
X127725059Y-103605499D01*
X127725063Y-103605499D01*
X127725064Y-103605500D01*
X127806525Y-103605500D01*
X127825271Y-103609227D01*
X127832165Y-103612083D01*
X127858685Y-103638598D01*
X127861543Y-103645499D01*
X127865272Y-103664247D01*
X127865272Y-103886530D01*
X127871435Y-103905497D01*
X127887834Y-103955972D01*
X127909293Y-103985507D01*
X127930751Y-104015042D01*
X127930753Y-104015044D01*
X127946642Y-104026588D01*
X127971403Y-104044578D01*
X127986702Y-104055693D01*
X127986709Y-104055698D01*
X127988174Y-104056949D01*
X127988173Y-104056949D01*
X127989556Y-104057873D01*
X127989820Y-104057958D01*
X127989822Y-104057960D01*
X127989823Y-104057960D01*
X127989824Y-104057961D01*
X128001789Y-104061848D01*
X128001790Y-104061849D01*
X128001791Y-104061849D01*
X128059264Y-104080523D01*
X128172279Y-104080523D01*
X128172280Y-104080523D01*
X128206337Y-104069457D01*
X128229753Y-104061849D01*
X128241720Y-104057961D01*
X128280784Y-104029578D01*
X128282581Y-104028495D01*
X128284860Y-104028150D01*
X128296449Y-104022807D01*
X128307957Y-104020045D01*
X128338130Y-104022414D01*
X128339205Y-104022860D01*
X128349255Y-104028486D01*
X128386710Y-104055698D01*
X128388175Y-104056949D01*
X128389815Y-104057954D01*
X128389823Y-104057960D01*
X128389824Y-104057961D01*
X128431750Y-104071583D01*
X128459264Y-104080523D01*
X128459265Y-104080523D01*
X128459267Y-104080523D01*
X128572278Y-104080523D01*
X128572279Y-104080523D01*
X128606333Y-104069457D01*
X128606335Y-104069457D01*
X128606335Y-104069456D01*
X128606336Y-104069456D01*
X128641720Y-104057961D01*
X128700792Y-104015043D01*
X128743710Y-103955971D01*
X128760109Y-103905498D01*
X128766272Y-103886529D01*
X128766272Y-103652474D01*
X128769999Y-103633729D01*
X128772855Y-103626833D01*
X128799366Y-103600315D01*
X128802001Y-103599223D01*
X128835875Y-103597900D01*
X128843305Y-103600314D01*
X128859266Y-103605500D01*
X128859267Y-103605500D01*
X128865836Y-103605500D01*
X128905836Y-103605500D01*
X130047796Y-103605500D01*
X131160754Y-103605500D01*
X131179500Y-103609227D01*
X131186394Y-103612083D01*
X131212914Y-103638598D01*
X131215772Y-103645499D01*
X131219501Y-103664247D01*
X131219501Y-103814897D01*
X131222565Y-103830308D01*
X131225331Y-103844213D01*
X131225331Y-103844214D01*
X131225332Y-103844215D01*
X131225332Y-103844216D01*
X131225695Y-103844759D01*
X131225914Y-103845671D01*
X131228011Y-103848226D01*
X131247538Y-103877451D01*
X131247540Y-103877454D01*
X131247541Y-103877456D01*
X131261122Y-103886530D01*
X131280787Y-103899669D01*
X131310101Y-103905500D01*
X132529898Y-103905499D01*
X132559213Y-103899669D01*
X132592457Y-103877457D01*
X132614669Y-103844213D01*
X132620500Y-103814899D01*
X132620499Y-103575362D01*
X132978232Y-103575362D01*
X132978232Y-103654489D01*
X132978760Y-103656460D01*
X132978760Y-103656463D01*
X132989036Y-103694809D01*
X132998711Y-103730915D01*
X132998711Y-103730917D01*
X133030465Y-103785915D01*
X133038272Y-103799437D01*
X133094221Y-103855386D01*
X133132448Y-103877456D01*
X133162493Y-103894803D01*
X133162743Y-103894947D01*
X133198210Y-103904450D01*
X133239168Y-103915426D01*
X133239170Y-103915426D01*
X133318295Y-103915426D01*
X133318296Y-103915426D01*
X133344962Y-103908280D01*
X133394721Y-103894947D01*
X133394971Y-103894803D01*
X133409303Y-103886528D01*
X133463243Y-103855386D01*
X133519192Y-103799437D01*
X133558753Y-103730915D01*
X133578403Y-103657581D01*
X133579232Y-103654489D01*
X133579232Y-103626577D01*
X133579318Y-103625124D01*
X133580147Y-103623413D01*
X133582961Y-103609269D01*
X133584522Y-103605500D01*
X133589855Y-103592625D01*
X133600473Y-103576734D01*
X133645466Y-103531741D01*
X133661357Y-103521123D01*
X133678002Y-103514228D01*
X133696751Y-103510500D01*
X133783683Y-103510500D01*
X133783688Y-103510500D01*
X133784625Y-103510313D01*
X133849112Y-103497486D01*
X133851514Y-103497250D01*
X133851521Y-103497248D01*
X133855846Y-103496164D01*
X133859879Y-103492510D01*
X133933390Y-103443392D01*
X133933391Y-103443391D01*
X133986546Y-103363839D01*
X133992302Y-103334905D01*
X134000499Y-103293693D01*
X134000500Y-103293688D01*
X134000500Y-102906312D01*
X134000499Y-102906306D01*
X133999376Y-102900659D01*
X133986548Y-102836166D01*
X133986547Y-102836164D01*
X133986547Y-102836163D01*
X133982092Y-102829496D01*
X133962163Y-102799669D01*
X133933391Y-102756608D01*
X133883009Y-102722945D01*
X133853839Y-102703454D01*
X133853838Y-102703453D01*
X133852393Y-102702488D01*
X133844964Y-102696389D01*
X133834847Y-102686269D01*
X133820500Y-102651626D01*
X133820500Y-102552842D01*
X133824229Y-102534093D01*
X133828269Y-102524339D01*
X133829083Y-102522373D01*
X133850509Y-102500945D01*
X133849505Y-102499442D01*
X133933391Y-102443391D01*
X133943397Y-102428416D01*
X133986546Y-102363839D01*
X133986907Y-102362028D01*
X134000499Y-102293693D01*
X134000500Y-102293688D01*
X134000500Y-101997867D01*
X138399500Y-101997867D01*
X138399500Y-101997868D01*
X138399500Y-101997870D01*
X138399500Y-102402128D01*
X138409862Y-102454225D01*
X138415485Y-102482495D01*
X138476374Y-102573624D01*
X138512876Y-102598013D01*
X138567505Y-102634515D01*
X138647867Y-102650500D01*
X140152132Y-102650499D01*
X140232495Y-102634515D01*
X140323624Y-102573624D01*
X140384515Y-102482495D01*
X140400500Y-102402133D01*
X140400499Y-101997868D01*
X140384515Y-101917505D01*
X140384513Y-101917503D01*
X140384513Y-101917501D01*
X140373419Y-101900898D01*
X140373416Y-101900894D01*
X140356832Y-101876074D01*
X141099500Y-101876074D01*
X141099500Y-102023924D01*
X141128332Y-102168869D01*
X141128340Y-102168908D01*
X141128345Y-102168923D01*
X141180023Y-102293685D01*
X141180024Y-102293685D01*
X141180025Y-102293688D01*
X141184916Y-102305495D01*
X141184917Y-102305497D01*
X141184918Y-102305498D01*
X141249484Y-102402129D01*
X141267049Y-102428416D01*
X141371584Y-102532951D01*
X141494505Y-102615084D01*
X141541413Y-102634514D01*
X141541412Y-102634514D01*
X141582725Y-102651626D01*
X141631084Y-102671657D01*
X141631085Y-102671657D01*
X141631087Y-102671658D01*
X141631090Y-102671658D01*
X141631091Y-102671659D01*
X141703584Y-102686079D01*
X141776082Y-102700500D01*
X141923918Y-102700500D01*
X142068913Y-102671658D01*
X142205495Y-102615084D01*
X142328416Y-102532951D01*
X142432951Y-102428416D01*
X142515084Y-102305495D01*
X142571658Y-102168913D01*
X142600500Y-102023918D01*
X142600500Y-101876082D01*
X142571658Y-101731087D01*
X142558643Y-101699667D01*
X142542393Y-101660436D01*
X142535675Y-101644216D01*
X142523719Y-101615352D01*
X142515084Y-101594505D01*
X142462285Y-101515486D01*
X142432951Y-101471583D01*
X142328421Y-101367053D01*
X142328417Y-101367050D01*
X142328416Y-101367049D01*
X142323608Y-101363837D01*
X142323607Y-101363835D01*
X142323607Y-101363836D01*
X142287810Y-101339917D01*
X142213460Y-101290238D01*
X142205495Y-101284916D01*
X142205492Y-101284914D01*
X142205474Y-101284902D01*
X142205474Y-101284901D01*
X142205081Y-101284640D01*
X142203255Y-101283987D01*
X142068923Y-101228345D01*
X142068919Y-101228343D01*
X142068915Y-101228342D01*
X142068912Y-101228341D01*
X142068908Y-101228340D01*
X142068869Y-101228332D01*
X141923924Y-101199500D01*
X141923921Y-101199500D01*
X141923918Y-101199500D01*
X141776082Y-101199500D01*
X141776078Y-101199500D01*
X141776074Y-101199500D01*
X141631129Y-101228332D01*
X141631090Y-101228340D01*
X141631085Y-101228341D01*
X141631084Y-101228342D01*
X141631080Y-101228343D01*
X141631079Y-101228344D01*
X141494509Y-101284913D01*
X141371583Y-101367048D01*
X141267048Y-101471583D01*
X141184913Y-101594509D01*
X141128344Y-101731079D01*
X141128340Y-101731090D01*
X141128332Y-101731129D01*
X141099500Y-101876074D01*
X140356832Y-101876074D01*
X140346384Y-101860438D01*
X140323626Y-101826377D01*
X140323623Y-101826374D01*
X140260216Y-101784008D01*
X140232495Y-101765485D01*
X140152133Y-101749500D01*
X140152130Y-101749500D01*
X138647874Y-101749500D01*
X138647871Y-101749500D01*
X138587595Y-101761488D01*
X138567503Y-101765485D01*
X138476377Y-101826372D01*
X138476374Y-101826375D01*
X138420278Y-101910331D01*
X138420277Y-101910330D01*
X138415486Y-101917500D01*
X138415485Y-101917503D01*
X138411097Y-101939563D01*
X138399500Y-101997867D01*
X134000500Y-101997867D01*
X134000500Y-101906312D01*
X134000499Y-101906306D01*
X133999755Y-101902568D01*
X133986547Y-101836164D01*
X133986547Y-101836163D01*
X133933391Y-101756607D01*
X133853837Y-101703452D01*
X133834802Y-101699666D01*
X133783693Y-101689500D01*
X133783690Y-101689500D01*
X133456309Y-101689500D01*
X133456306Y-101689500D01*
X133414220Y-101697871D01*
X133386161Y-101703452D01*
X133306607Y-101756607D01*
X133253452Y-101836161D01*
X133247871Y-101864220D01*
X133239500Y-101906306D01*
X133239500Y-102293693D01*
X133250136Y-102347167D01*
X133253452Y-102363837D01*
X133306606Y-102443390D01*
X133321463Y-102453317D01*
X133365132Y-102482495D01*
X133386161Y-102496546D01*
X133386162Y-102496546D01*
X133387602Y-102497508D01*
X133395019Y-102503594D01*
X133405145Y-102513718D01*
X133419500Y-102548364D01*
X133419500Y-102647155D01*
X133415770Y-102665907D01*
X133412747Y-102673205D01*
X133398680Y-102687271D01*
X133400512Y-102689103D01*
X133389571Y-102700043D01*
X133382147Y-102706135D01*
X133372814Y-102712371D01*
X133306606Y-102756608D01*
X133253452Y-102836161D01*
X133250290Y-102852058D01*
X133240746Y-102900045D01*
X133239500Y-102906307D01*
X133239500Y-103266990D01*
X133235770Y-103285742D01*
X133231513Y-103296019D01*
X133210746Y-103319701D01*
X133208770Y-103320842D01*
X133196950Y-103325738D01*
X133168974Y-103333235D01*
X133168969Y-103333235D01*
X133168970Y-103333236D01*
X133162738Y-103334905D01*
X133092313Y-103375567D01*
X133089656Y-103379030D01*
X133042836Y-103425850D01*
X133039373Y-103428507D01*
X132998711Y-103498932D01*
X132997921Y-103501881D01*
X132997920Y-103501886D01*
X132978232Y-103575362D01*
X132620499Y-103575362D01*
X132620499Y-103448759D01*
X132620499Y-103095105D01*
X132620499Y-103095102D01*
X132614669Y-103065787D01*
X132614667Y-103065784D01*
X132614667Y-103065783D01*
X132592457Y-103032543D01*
X132578908Y-103023490D01*
X132559214Y-103010331D01*
X132559213Y-103010330D01*
X132559212Y-103010330D01*
X132529901Y-103004500D01*
X132529898Y-103004500D01*
X131310032Y-103004500D01*
X131309246Y-103004671D01*
X131298214Y-103006865D01*
X131285517Y-103009390D01*
X131283100Y-103009628D01*
X131282250Y-103009886D01*
X131282249Y-103009885D01*
X131280787Y-103010329D01*
X131247541Y-103032543D01*
X131225330Y-103065784D01*
X131224625Y-103068107D01*
X131224388Y-103070522D01*
X131219500Y-103095091D01*
X131219500Y-103245752D01*
X131215771Y-103264501D01*
X131215367Y-103265479D01*
X131212916Y-103271396D01*
X131186398Y-103297914D01*
X131179503Y-103300770D01*
X131160753Y-103304500D01*
X129025019Y-103304500D01*
X129006271Y-103300771D01*
X128999373Y-103297914D01*
X128972857Y-103271398D01*
X128969999Y-103264497D01*
X128966272Y-103245752D01*
X128966272Y-103023490D01*
X128961997Y-103010332D01*
X128943709Y-102954046D01*
X128917159Y-102917504D01*
X128900792Y-102894976D01*
X128862783Y-102867361D01*
X128860333Y-102865581D01*
X128860330Y-102865578D01*
X128846813Y-102855758D01*
X128841721Y-102852058D01*
X128792793Y-102836161D01*
X128772280Y-102829496D01*
X128772279Y-102829496D01*
X128772277Y-102829496D01*
X128765708Y-102829496D01*
X128695775Y-102829496D01*
X128659267Y-102829496D01*
X128659265Y-102829496D01*
X128659263Y-102829496D01*
X128589821Y-102852058D01*
X128589816Y-102852060D01*
X128552456Y-102879205D01*
X128535092Y-102887209D01*
X128523586Y-102889971D01*
X128493420Y-102887604D01*
X128492349Y-102887161D01*
X128482282Y-102881527D01*
X128441721Y-102852058D01*
X128407000Y-102840777D01*
X128372280Y-102829496D01*
X128372279Y-102829496D01*
X128372277Y-102829496D01*
X128365708Y-102829496D01*
X128295775Y-102829496D01*
X128259267Y-102829496D01*
X128259265Y-102829496D01*
X128259263Y-102829496D01*
X128189823Y-102852057D01*
X128130752Y-102894976D01*
X128087833Y-102954047D01*
X128065272Y-103023487D01*
X128065272Y-103257524D01*
X128061543Y-103276273D01*
X128059701Y-103280723D01*
X128058688Y-103283168D01*
X128032168Y-103309687D01*
X128029973Y-103310596D01*
X128029557Y-103310769D01*
X127995667Y-103312098D01*
X127984344Y-103308420D01*
X127972280Y-103304500D01*
X127972279Y-103304500D01*
X127972277Y-103304500D01*
X127965708Y-103304500D01*
X127847382Y-103304500D01*
X127828631Y-103300770D01*
X127811988Y-103293876D01*
X127796094Y-103283255D01*
X127680156Y-103167316D01*
X127669534Y-103151419D01*
X127662641Y-103134778D01*
X127658912Y-103116028D01*
X127658912Y-101304625D01*
X127662641Y-101285875D01*
X127663039Y-101284914D01*
X127667948Y-101273062D01*
X127688721Y-101249377D01*
X127691677Y-101247670D01*
X127693827Y-101246514D01*
X127695062Y-101245716D01*
X127704734Y-101240131D01*
X127705134Y-101237100D01*
X127712914Y-101226960D01*
X127748872Y-101191003D01*
X127788433Y-101122481D01*
X127788433Y-101122479D01*
X127790040Y-101119697D01*
X127790069Y-101119713D01*
X127794726Y-101111643D01*
X127799990Y-101104781D01*
X127832428Y-101086035D01*
X127832733Y-101085994D01*
X127832994Y-101085960D01*
X127863920Y-101092093D01*
X127865905Y-101093239D01*
X127876058Y-101101029D01*
X127915489Y-101140460D01*
X127984011Y-101180021D01*
X128019476Y-101189523D01*
X128019477Y-101189524D01*
X128039957Y-101195012D01*
X128060436Y-101200500D01*
X128060438Y-101200500D01*
X128139563Y-101200500D01*
X128139564Y-101200500D01*
X128190513Y-101186847D01*
X128215989Y-101180021D01*
X128241316Y-101165397D01*
X128244296Y-101164166D01*
X128246902Y-101164167D01*
X128256619Y-101160869D01*
X128264015Y-101159896D01*
X128280048Y-101164192D01*
X128281799Y-101164194D01*
X128282436Y-101164832D01*
X128300237Y-101169603D01*
X128306155Y-101174144D01*
X128318761Y-101188518D01*
X128339537Y-101224503D01*
X128339539Y-101224505D01*
X128339541Y-101224509D01*
X128395490Y-101280458D01*
X128435049Y-101303297D01*
X128464008Y-101320017D01*
X128464012Y-101320019D01*
X128495230Y-101328384D01*
X128540437Y-101340498D01*
X128540439Y-101340498D01*
X128619564Y-101340498D01*
X128619565Y-101340498D01*
X128646231Y-101333352D01*
X128695990Y-101320019D01*
X128764512Y-101280458D01*
X128820461Y-101224509D01*
X128860022Y-101155987D01*
X128878057Y-101088682D01*
X128880602Y-101085364D01*
X128880082Y-101082748D01*
X128880501Y-101079564D01*
X128880501Y-101000434D01*
X128864703Y-100941479D01*
X128864703Y-100941478D01*
X128862541Y-100933410D01*
X128860022Y-100924009D01*
X128860021Y-100924007D01*
X128860021Y-100924006D01*
X128834940Y-100880566D01*
X128820461Y-100855487D01*
X128764512Y-100799538D01*
X128764508Y-100799536D01*
X128764506Y-100799534D01*
X128748872Y-100790508D01*
X128695993Y-100759977D01*
X128695989Y-100759976D01*
X128619567Y-100739498D01*
X128619565Y-100739498D01*
X128619563Y-100739498D01*
X128540439Y-100739498D01*
X128540437Y-100739498D01*
X128540435Y-100739498D01*
X128464012Y-100759976D01*
X128464010Y-100759977D01*
X128441485Y-100772982D01*
X128423378Y-100779127D01*
X128415983Y-100780100D01*
X128379763Y-100770394D01*
X128373846Y-100765854D01*
X128361239Y-100751479D01*
X128340464Y-100715495D01*
X128340461Y-100715492D01*
X128340460Y-100715489D01*
X128284511Y-100659540D01*
X128284509Y-100659539D01*
X128284507Y-100659537D01*
X128274796Y-100653931D01*
X128268853Y-100650500D01*
X128215990Y-100619979D01*
X128215989Y-100619978D01*
X128215988Y-100619978D01*
X128139596Y-100599508D01*
X128139587Y-100599506D01*
X128139562Y-100599500D01*
X128139536Y-100599500D01*
X128136444Y-100599090D01*
X128120042Y-100589599D01*
X128104013Y-100580345D01*
X128104006Y-100580319D01*
X128103984Y-100580307D01*
X128099999Y-100565380D01*
X128096015Y-100580308D01*
X128093064Y-100582015D01*
X128091761Y-100585163D01*
X128063784Y-100598959D01*
X128063561Y-100599089D01*
X128060463Y-100599500D01*
X128060438Y-100599500D01*
X128060413Y-100599506D01*
X128060403Y-100599508D01*
X127990242Y-100618309D01*
X127990237Y-100618309D01*
X127990238Y-100618310D01*
X127984006Y-100619979D01*
X127913581Y-100660641D01*
X127910924Y-100664104D01*
X127864104Y-100710924D01*
X127860641Y-100713581D01*
X127816753Y-100789595D01*
X127816181Y-100789265D01*
X127812960Y-100795791D01*
X127808421Y-100801707D01*
X127775959Y-100820458D01*
X127775391Y-100820533D01*
X127744474Y-100814389D01*
X127742498Y-100813248D01*
X127732353Y-100805462D01*
X127692923Y-100766032D01*
X127624404Y-100726471D01*
X127624400Y-100726470D01*
X127547978Y-100705992D01*
X127547976Y-100705992D01*
X127547974Y-100705992D01*
X127474587Y-100705992D01*
X127461901Y-100704321D01*
X127451746Y-100701599D01*
X127421996Y-100678769D01*
X127417961Y-100671779D01*
X127417229Y-100670512D01*
X127412340Y-100658707D01*
X127405858Y-100634515D01*
X127392597Y-100585026D01*
X127392595Y-100585023D01*
X127392595Y-100585021D01*
X127392590Y-100585012D01*
X127392427Y-100584650D01*
X127391752Y-100583562D01*
X127391617Y-100583327D01*
X127390993Y-100581481D01*
X127390944Y-100581372D01*
X127390954Y-100581367D01*
X127385545Y-100565352D01*
X127384571Y-100557956D01*
X127394261Y-100521751D01*
X127394613Y-100521292D01*
X127420830Y-100503772D01*
X127423040Y-100503179D01*
X127435704Y-100501515D01*
X128057113Y-100501515D01*
X128071675Y-100507547D01*
X128086906Y-100511613D01*
X128088612Y-100514562D01*
X128091761Y-100515867D01*
X128097791Y-100530426D01*
X128099999Y-100534242D01*
X128103802Y-100527670D01*
X128113057Y-100511641D01*
X128113083Y-100511632D01*
X128113095Y-100511612D01*
X128113318Y-100511552D01*
X128142887Y-100501515D01*
X129258632Y-100501515D01*
X129277383Y-100505245D01*
X129294022Y-100512137D01*
X129309919Y-100522759D01*
X129458939Y-100671779D01*
X129469561Y-100687675D01*
X129471580Y-100692549D01*
X129471581Y-100730052D01*
X129445067Y-100756569D01*
X129444022Y-100757002D01*
X129412582Y-100759064D01*
X129339566Y-100739498D01*
X129339564Y-100739498D01*
X129339562Y-100739498D01*
X129260438Y-100739498D01*
X129260436Y-100739498D01*
X129260434Y-100739498D01*
X129190242Y-100758307D01*
X129190237Y-100758307D01*
X129190238Y-100758308D01*
X129184006Y-100759977D01*
X129113581Y-100800639D01*
X129110924Y-100804102D01*
X129064104Y-100850922D01*
X129060641Y-100853579D01*
X129019979Y-100924004D01*
X129018310Y-100930236D01*
X129018309Y-100930240D01*
X128999500Y-101000432D01*
X128999500Y-101079562D01*
X129007469Y-101109300D01*
X129015818Y-101140460D01*
X129018309Y-101149754D01*
X129018310Y-101149759D01*
X129019979Y-101155989D01*
X129045101Y-101199500D01*
X129059540Y-101224509D01*
X129115489Y-101280458D01*
X129115492Y-101280459D01*
X129115495Y-101280462D01*
X129115529Y-101280482D01*
X129116123Y-101280849D01*
X129116124Y-101280850D01*
X129116135Y-101280857D01*
X129117930Y-101281967D01*
X129131030Y-101293809D01*
X129137589Y-101302355D01*
X129139276Y-101304554D01*
X129139371Y-101304677D01*
X129149500Y-101334510D01*
X129149500Y-101421204D01*
X129145771Y-101439953D01*
X129143552Y-101445313D01*
X129142916Y-101446848D01*
X129116398Y-101473366D01*
X129109503Y-101476222D01*
X129090753Y-101479952D01*
X128895531Y-101479952D01*
X128826091Y-101502513D01*
X128767020Y-101545432D01*
X128724101Y-101604503D01*
X128701540Y-101673943D01*
X128701540Y-101786959D01*
X128708564Y-101808576D01*
X128724102Y-101856401D01*
X128741623Y-101880516D01*
X128767020Y-101915472D01*
X128800179Y-101939563D01*
X128822976Y-101956126D01*
X128824440Y-101957376D01*
X128824450Y-101957383D01*
X128825828Y-101958304D01*
X128826091Y-101958389D01*
X128826092Y-101958390D01*
X128838242Y-101962337D01*
X128838245Y-101962340D01*
X128838246Y-101962339D01*
X128855999Y-101968107D01*
X128895533Y-101980952D01*
X128895535Y-101980952D01*
X128902104Y-101980952D01*
X129090753Y-101980952D01*
X129109499Y-101984679D01*
X129116393Y-101987535D01*
X129142913Y-102014050D01*
X129145771Y-102020951D01*
X129149500Y-102039699D01*
X129149500Y-102129938D01*
X129154252Y-102141409D01*
X129154254Y-102141412D01*
X129172410Y-102185248D01*
X129172414Y-102185256D01*
X129349188Y-102362028D01*
X129440478Y-102453317D01*
X129440830Y-102453672D01*
X129441024Y-102453870D01*
X129444333Y-102457611D01*
X129458754Y-102475693D01*
X129458755Y-102475693D01*
X129460769Y-102477299D01*
X129471372Y-102491695D01*
X129472402Y-102491063D01*
X129476998Y-102498547D01*
X129475046Y-102499745D01*
X129484500Y-102524476D01*
X129484500Y-102759467D01*
X129497562Y-102799669D01*
X129507062Y-102828909D01*
X129523881Y-102852058D01*
X129549980Y-102887980D01*
X129584265Y-102912889D01*
X129605936Y-102928634D01*
X129607400Y-102929885D01*
X129607405Y-102929888D01*
X129608787Y-102930811D01*
X129609048Y-102930896D01*
X129609050Y-102930897D01*
X129609051Y-102930897D01*
X129609052Y-102930898D01*
X129633367Y-102938797D01*
X129633368Y-102938798D01*
X129644396Y-102942381D01*
X129678493Y-102953460D01*
X129678495Y-102953460D01*
X129791507Y-102953460D01*
X129837800Y-102938418D01*
X129860948Y-102930898D01*
X129900639Y-102902060D01*
X129903136Y-102900659D01*
X129905674Y-102900356D01*
X129915677Y-102895744D01*
X129927185Y-102892982D01*
X129957390Y-102895365D01*
X129958456Y-102895807D01*
X129968489Y-102901428D01*
X130005915Y-102928619D01*
X130009034Y-102930885D01*
X130009052Y-102930898D01*
X130061463Y-102947926D01*
X130078492Y-102953460D01*
X130078493Y-102953460D01*
X130078495Y-102953460D01*
X130191506Y-102953460D01*
X130191507Y-102953460D01*
X130225564Y-102942393D01*
X130260948Y-102930898D01*
X130301158Y-102901682D01*
X130304250Y-102900051D01*
X130306858Y-102899807D01*
X130315678Y-102895741D01*
X130327192Y-102892977D01*
X130357389Y-102895356D01*
X130358459Y-102895799D01*
X130368496Y-102901423D01*
X130409045Y-102930885D01*
X130409048Y-102930887D01*
X130409054Y-102930890D01*
X130478491Y-102953451D01*
X130478493Y-102953451D01*
X130478495Y-102953451D01*
X130591506Y-102953451D01*
X130591507Y-102953451D01*
X130625564Y-102942384D01*
X130660948Y-102930889D01*
X130701149Y-102901680D01*
X130704248Y-102900045D01*
X130706854Y-102899802D01*
X130715672Y-102895735D01*
X130727187Y-102892971D01*
X130757393Y-102895355D01*
X130758472Y-102895802D01*
X130768485Y-102901412D01*
X130775225Y-102906309D01*
X130775227Y-102906312D01*
X130775228Y-102906311D01*
X130775229Y-102906312D01*
X130809050Y-102930885D01*
X130809051Y-102930885D01*
X130809052Y-102930886D01*
X130833367Y-102938785D01*
X130833368Y-102938786D01*
X130848446Y-102943685D01*
X130878493Y-102953448D01*
X130878495Y-102953448D01*
X130991506Y-102953448D01*
X130991507Y-102953448D01*
X131025561Y-102942382D01*
X131025563Y-102942382D01*
X131025563Y-102942381D01*
X131025564Y-102942381D01*
X131060948Y-102930886D01*
X131120020Y-102887968D01*
X131162938Y-102828896D01*
X131168746Y-102811018D01*
X131178085Y-102794338D01*
X131182932Y-102788663D01*
X131216345Y-102771637D01*
X131219523Y-102771387D01*
X131250590Y-102779494D01*
X131280783Y-102799668D01*
X131280787Y-102799669D01*
X131310101Y-102805500D01*
X132529898Y-102805499D01*
X132559213Y-102799669D01*
X132592457Y-102777457D01*
X132614669Y-102744213D01*
X132620500Y-102714899D01*
X132620499Y-101995102D01*
X132614669Y-101965787D01*
X132614667Y-101965784D01*
X132614667Y-101965783D01*
X132592457Y-101932543D01*
X132592456Y-101932542D01*
X132559214Y-101910331D01*
X132559213Y-101910330D01*
X132559212Y-101910330D01*
X132529901Y-101904500D01*
X132529898Y-101904500D01*
X131310032Y-101904500D01*
X131309246Y-101904671D01*
X131298214Y-101906865D01*
X131285517Y-101909390D01*
X131283100Y-101909628D01*
X131282250Y-101909886D01*
X131282249Y-101909885D01*
X131280787Y-101910329D01*
X131247541Y-101932543D01*
X131225330Y-101965784D01*
X131224625Y-101968107D01*
X131224388Y-101970522D01*
X131219500Y-101995091D01*
X131219500Y-102145752D01*
X131215771Y-102164501D01*
X131213944Y-102168915D01*
X131212916Y-102171396D01*
X131186398Y-102197914D01*
X131179503Y-102200770D01*
X131160753Y-102204500D01*
X131078491Y-102204500D01*
X131058910Y-102210862D01*
X131039921Y-102213108D01*
X131037229Y-102212896D01*
X131032483Y-102212523D01*
X130999072Y-102195497D01*
X130997239Y-102193350D01*
X130985500Y-102161529D01*
X130985500Y-101950541D01*
X130974766Y-101917505D01*
X130969370Y-101900898D01*
X130962938Y-101881101D01*
X130962931Y-101881092D01*
X130947924Y-101860436D01*
X130920020Y-101822029D01*
X130918249Y-101820742D01*
X130871749Y-101786957D01*
X130871748Y-101786957D01*
X130866349Y-101783034D01*
X130860949Y-101779111D01*
X130814070Y-101763879D01*
X130791508Y-101756549D01*
X130791507Y-101756549D01*
X130791505Y-101756549D01*
X130784936Y-101756549D01*
X130715003Y-101756549D01*
X130678495Y-101756549D01*
X130678493Y-101756549D01*
X130678491Y-101756549D01*
X130609049Y-101779111D01*
X130609044Y-101779113D01*
X130571684Y-101806258D01*
X130554320Y-101814262D01*
X130542814Y-101817024D01*
X130512648Y-101814657D01*
X130511577Y-101814214D01*
X130501510Y-101808580D01*
X130460949Y-101779111D01*
X130424095Y-101767137D01*
X130391508Y-101756549D01*
X130391507Y-101756549D01*
X130391505Y-101756549D01*
X130384936Y-101756549D01*
X130315003Y-101756549D01*
X130278495Y-101756549D01*
X130278493Y-101756549D01*
X130278491Y-101756549D01*
X130209050Y-101779111D01*
X130209049Y-101779111D01*
X130171691Y-101806254D01*
X130154330Y-101814258D01*
X130142822Y-101817021D01*
X130112621Y-101814641D01*
X130111555Y-101814199D01*
X130101517Y-101808576D01*
X130067703Y-101784009D01*
X130060947Y-101779101D01*
X129991509Y-101756540D01*
X129991507Y-101756540D01*
X129991505Y-101756540D01*
X129984936Y-101756540D01*
X129915003Y-101756540D01*
X129878495Y-101756540D01*
X129878493Y-101756540D01*
X129878491Y-101756540D01*
X129809051Y-101779101D01*
X129749980Y-101822020D01*
X129707061Y-101881091D01*
X129684500Y-101950531D01*
X129684500Y-102143616D01*
X129680770Y-102162368D01*
X129678751Y-102167242D01*
X129652232Y-102193761D01*
X129614729Y-102193760D01*
X129609855Y-102191741D01*
X129593959Y-102181119D01*
X129471744Y-102058904D01*
X129461122Y-102043007D01*
X129454229Y-102026366D01*
X129450500Y-102007616D01*
X129450500Y-101873944D01*
X129433214Y-101820742D01*
X129427938Y-101804504D01*
X129417576Y-101790242D01*
X129413058Y-101784023D01*
X129413054Y-101784018D01*
X129413048Y-101784010D01*
X129400785Y-101767131D01*
X129392784Y-101749772D01*
X129390022Y-101738266D01*
X129392397Y-101708078D01*
X129392842Y-101707004D01*
X129398469Y-101696960D01*
X129413955Y-101675645D01*
X129427938Y-101656400D01*
X129439219Y-101621678D01*
X129441275Y-101615352D01*
X129444800Y-101604502D01*
X129450500Y-101586958D01*
X129450500Y-101338131D01*
X129454229Y-101319381D01*
X129455754Y-101315700D01*
X129459536Y-101306568D01*
X129480309Y-101282883D01*
X129483265Y-101281176D01*
X129485415Y-101280020D01*
X129486650Y-101279222D01*
X129496322Y-101273637D01*
X129496722Y-101270606D01*
X129504502Y-101260466D01*
X129540460Y-101224509D01*
X129580021Y-101155987D01*
X129592531Y-101109299D01*
X129600987Y-101092153D01*
X129602453Y-101090242D01*
X129605528Y-101086234D01*
X129638001Y-101067484D01*
X129641296Y-101067050D01*
X129672190Y-101073196D01*
X129683209Y-101079558D01*
X129684013Y-101080022D01*
X129690926Y-101081874D01*
X129700764Y-101084510D01*
X129700767Y-101084512D01*
X129700768Y-101084511D01*
X129760436Y-101100500D01*
X129760438Y-101100500D01*
X129839563Y-101100500D01*
X129839564Y-101100500D01*
X129866230Y-101093354D01*
X129915989Y-101080021D01*
X129916788Y-101079560D01*
X129925170Y-101074720D01*
X129984511Y-101040460D01*
X130040460Y-100984511D01*
X130080021Y-100915989D01*
X130100500Y-100839562D01*
X130100500Y-100834903D01*
X130104227Y-100816158D01*
X130107083Y-100809262D01*
X130133594Y-100782744D01*
X130140502Y-100779882D01*
X130159247Y-100776156D01*
X130290753Y-100776156D01*
X130309499Y-100779883D01*
X130316393Y-100782739D01*
X130342913Y-100809254D01*
X130345771Y-100816155D01*
X130349500Y-100834903D01*
X130349500Y-100929937D01*
X130349500Y-100929939D01*
X130349501Y-100929940D01*
X130355192Y-100943680D01*
X130355198Y-100943693D01*
X130372406Y-100985241D01*
X130372414Y-100985256D01*
X130624261Y-101237100D01*
X130671169Y-101284008D01*
X130769749Y-101382588D01*
X130797406Y-101394043D01*
X130825064Y-101405500D01*
X131160754Y-101405500D01*
X131179500Y-101409227D01*
X131186394Y-101412083D01*
X131212914Y-101438598D01*
X131215772Y-101445499D01*
X131219501Y-101464247D01*
X131219501Y-101614898D01*
X131225331Y-101644213D01*
X131225331Y-101644214D01*
X131225332Y-101644215D01*
X131225332Y-101644216D01*
X131225695Y-101644759D01*
X131225914Y-101645671D01*
X131228011Y-101648226D01*
X131247538Y-101677451D01*
X131247542Y-101677456D01*
X131247543Y-101677457D01*
X131280787Y-101699669D01*
X131310101Y-101705500D01*
X132529898Y-101705499D01*
X132559213Y-101699669D01*
X132592457Y-101677457D01*
X132614669Y-101644213D01*
X132618619Y-101624356D01*
X132620500Y-101614903D01*
X132620499Y-101614901D01*
X132620500Y-101614899D01*
X132620499Y-101160434D01*
X132799500Y-101160434D01*
X132799500Y-101239564D01*
X132811107Y-101282881D01*
X132819979Y-101315989D01*
X132819979Y-101315991D01*
X132849458Y-101367049D01*
X132849979Y-101367951D01*
X132849983Y-101367959D01*
X132859536Y-101384505D01*
X132859538Y-101384507D01*
X132859540Y-101384511D01*
X132915489Y-101440460D01*
X132950423Y-101460629D01*
X132984007Y-101480019D01*
X132984011Y-101480021D01*
X133017778Y-101489069D01*
X133060436Y-101500500D01*
X133060438Y-101500500D01*
X133139563Y-101500500D01*
X133139564Y-101500500D01*
X133190513Y-101486847D01*
X133215989Y-101480021D01*
X133261228Y-101453901D01*
X133263374Y-101452924D01*
X133265783Y-101452840D01*
X133277285Y-101448936D01*
X133290432Y-101447205D01*
X133324048Y-101455043D01*
X133386161Y-101496546D01*
X133386163Y-101496547D01*
X133456306Y-101510499D01*
X133456312Y-101510500D01*
X133783683Y-101510500D01*
X133783688Y-101510500D01*
X133784625Y-101510313D01*
X133849112Y-101497486D01*
X133851514Y-101497250D01*
X133851521Y-101497248D01*
X133855846Y-101496164D01*
X133859879Y-101492510D01*
X133866779Y-101487900D01*
X133909221Y-101459541D01*
X133933390Y-101443392D01*
X133935949Y-101439563D01*
X133986546Y-101363839D01*
X133987384Y-101359629D01*
X134000499Y-101293693D01*
X134000500Y-101293688D01*
X134000500Y-100906312D01*
X134000499Y-100906306D01*
X133998271Y-100895105D01*
X133986548Y-100836166D01*
X133986547Y-100836163D01*
X133984129Y-100832545D01*
X133984128Y-100832544D01*
X133984128Y-100832543D01*
X133968034Y-100808456D01*
X133933391Y-100756608D01*
X133933387Y-100756605D01*
X133933386Y-100756604D01*
X133853837Y-100703452D01*
X133836300Y-100699964D01*
X133783693Y-100689500D01*
X133783690Y-100689500D01*
X133456309Y-100689500D01*
X133456306Y-100689500D01*
X133414220Y-100697871D01*
X133386161Y-100703452D01*
X133306612Y-100756604D01*
X133306605Y-100756610D01*
X133253452Y-100836162D01*
X133247836Y-100864397D01*
X133240520Y-100882060D01*
X133236376Y-100888262D01*
X133205194Y-100909097D01*
X133205189Y-100909098D01*
X133199284Y-100910272D01*
X133177047Y-100909543D01*
X133139567Y-100899500D01*
X133139564Y-100899500D01*
X133139562Y-100899500D01*
X133060438Y-100899500D01*
X133060436Y-100899500D01*
X133060434Y-100899500D01*
X132990242Y-100918309D01*
X132990237Y-100918309D01*
X132990238Y-100918310D01*
X132984006Y-100919979D01*
X132913581Y-100960641D01*
X132910924Y-100964104D01*
X132864104Y-101010924D01*
X132860641Y-101013581D01*
X132819979Y-101084006D01*
X132818310Y-101090238D01*
X132818309Y-101090242D01*
X132799500Y-101160434D01*
X132620499Y-101160434D01*
X132620499Y-100895102D01*
X132614669Y-100865787D01*
X132614667Y-100865784D01*
X132614667Y-100865783D01*
X132592457Y-100832543D01*
X132592456Y-100832542D01*
X132559214Y-100810331D01*
X132559213Y-100810330D01*
X132559212Y-100810330D01*
X132529901Y-100804500D01*
X132529898Y-100804500D01*
X131310032Y-100804500D01*
X131309246Y-100804671D01*
X131298214Y-100806865D01*
X131285517Y-100809390D01*
X131283100Y-100809628D01*
X131282250Y-100809886D01*
X131282249Y-100809885D01*
X131280787Y-100810329D01*
X131247541Y-100832543D01*
X131225330Y-100865784D01*
X131224625Y-100868107D01*
X131224388Y-100870522D01*
X131219500Y-100895091D01*
X131219500Y-101045752D01*
X131215771Y-101064501D01*
X131214537Y-101067483D01*
X131212916Y-101071396D01*
X131186398Y-101097914D01*
X131179503Y-101100770D01*
X131160753Y-101104500D01*
X130947382Y-101104500D01*
X130928631Y-101100770D01*
X130911988Y-101093876D01*
X130896094Y-101083255D01*
X130671744Y-100858904D01*
X130661122Y-100843007D01*
X130654229Y-100826366D01*
X130650500Y-100807616D01*
X130650500Y-100669146D01*
X130644138Y-100649568D01*
X130641890Y-100630582D01*
X130642476Y-100623137D01*
X130659505Y-100589726D01*
X130661657Y-100587889D01*
X130693471Y-100576156D01*
X130956506Y-100576156D01*
X130956507Y-100576156D01*
X130990561Y-100565090D01*
X130990563Y-100565090D01*
X130990563Y-100565089D01*
X130990564Y-100565089D01*
X131025948Y-100553594D01*
X131085020Y-100510676D01*
X131127938Y-100451604D01*
X131146863Y-100393355D01*
X131150500Y-100382162D01*
X131150500Y-100269148D01*
X131144799Y-100251604D01*
X131127938Y-100199708D01*
X131115189Y-100182161D01*
X131100786Y-100162337D01*
X131092784Y-100144976D01*
X131091484Y-100139562D01*
X131090022Y-100133469D01*
X131092397Y-100103282D01*
X131092842Y-100102208D01*
X131098465Y-100092168D01*
X131127938Y-100051604D01*
X131145397Y-99997867D01*
X138399500Y-99997867D01*
X138399500Y-99997868D01*
X138399500Y-99997870D01*
X138399500Y-100402128D01*
X138409341Y-100451604D01*
X138415485Y-100482495D01*
X138476372Y-100573621D01*
X138476375Y-100573624D01*
X138493441Y-100585027D01*
X138511893Y-100597356D01*
X138567505Y-100634515D01*
X138647867Y-100650500D01*
X140152132Y-100650499D01*
X140232495Y-100634515D01*
X140323624Y-100573624D01*
X140384515Y-100482495D01*
X140400500Y-100402133D01*
X140400499Y-99997868D01*
X140384515Y-99917505D01*
X140340481Y-99851604D01*
X140323624Y-99826375D01*
X140323622Y-99826374D01*
X140323622Y-99826373D01*
X140268995Y-99789874D01*
X140232495Y-99765485D01*
X140232496Y-99765485D01*
X140212404Y-99761488D01*
X140152133Y-99749500D01*
X140152130Y-99749500D01*
X138647874Y-99749500D01*
X138647871Y-99749500D01*
X138587595Y-99761488D01*
X138567503Y-99765485D01*
X138476377Y-99826372D01*
X138476374Y-99826375D01*
X138427824Y-99899036D01*
X138427824Y-99899038D01*
X138415485Y-99917505D01*
X138399500Y-99997867D01*
X131145397Y-99997867D01*
X131149899Y-99984011D01*
X131149901Y-99984011D01*
X131149903Y-99983996D01*
X131150500Y-99982162D01*
X131150500Y-99869149D01*
X131150371Y-99868753D01*
X131141115Y-99840265D01*
X131127938Y-99799708D01*
X131100788Y-99762339D01*
X131092784Y-99744976D01*
X131090022Y-99733470D01*
X131092397Y-99703282D01*
X131092842Y-99702208D01*
X131098465Y-99692168D01*
X131127938Y-99651604D01*
X131146863Y-99593355D01*
X131150500Y-99582162D01*
X131150500Y-99469150D01*
X131144800Y-99451606D01*
X131127937Y-99399706D01*
X131115190Y-99382162D01*
X131090141Y-99347684D01*
X131090141Y-99347683D01*
X131085020Y-99340635D01*
X131050219Y-99315352D01*
X131050218Y-99315351D01*
X131029778Y-99300500D01*
X131025949Y-99297718D01*
X130979070Y-99282486D01*
X130956508Y-99275156D01*
X130956507Y-99275156D01*
X130956505Y-99275156D01*
X130949936Y-99275156D01*
X130697475Y-99275156D01*
X130678727Y-99271427D01*
X130671829Y-99268570D01*
X130645313Y-99242054D01*
X130644229Y-99239438D01*
X130642900Y-99205554D01*
X130650500Y-99182162D01*
X130650500Y-98870066D01*
X130650499Y-98870062D01*
X130650491Y-98870042D01*
X130650472Y-98869995D01*
X130650411Y-98869850D01*
X130638237Y-98840460D01*
X130638236Y-98840458D01*
X130634422Y-98831249D01*
X130627588Y-98814749D01*
X130602934Y-98790095D01*
X133499500Y-98790095D01*
X133499500Y-99809894D01*
X133499501Y-99809898D01*
X133499516Y-99809974D01*
X133499516Y-99810028D01*
X133499535Y-99810188D01*
X133499732Y-99811062D01*
X133502376Y-99824356D01*
X133503747Y-99831250D01*
X133504390Y-99834480D01*
X133504723Y-99837867D01*
X133505581Y-99840265D01*
X133508009Y-99843223D01*
X133525334Y-99869151D01*
X133527543Y-99872457D01*
X133560787Y-99894669D01*
X133590101Y-99900500D01*
X134609898Y-99900499D01*
X134639213Y-99894669D01*
X134672457Y-99872457D01*
X134694669Y-99839213D01*
X134700500Y-99809899D01*
X134700499Y-98790102D01*
X134700497Y-98790091D01*
X135699500Y-98790091D01*
X135699500Y-99809896D01*
X135699535Y-99810188D01*
X135699732Y-99811062D01*
X135702376Y-99824356D01*
X135703747Y-99831250D01*
X135704390Y-99834480D01*
X135704723Y-99837867D01*
X135705581Y-99840265D01*
X135708009Y-99843223D01*
X135725334Y-99869151D01*
X135727543Y-99872457D01*
X135760787Y-99894669D01*
X135790101Y-99900500D01*
X136809898Y-99900499D01*
X136839213Y-99894669D01*
X136872457Y-99872457D01*
X136894669Y-99839213D01*
X136900500Y-99809899D01*
X136900499Y-98790102D01*
X136894669Y-98760787D01*
X136894667Y-98760784D01*
X136894667Y-98760783D01*
X136872457Y-98727543D01*
X136872456Y-98727542D01*
X136839214Y-98705331D01*
X136839213Y-98705330D01*
X136839212Y-98705330D01*
X136809901Y-98699500D01*
X136809898Y-98699500D01*
X135790032Y-98699500D01*
X135789246Y-98699671D01*
X135778214Y-98701865D01*
X135765517Y-98704390D01*
X135763100Y-98704628D01*
X135762250Y-98704886D01*
X135762249Y-98704885D01*
X135760787Y-98705329D01*
X135727541Y-98727543D01*
X135705330Y-98760784D01*
X135704625Y-98763107D01*
X135704388Y-98765522D01*
X135699500Y-98790091D01*
X134700497Y-98790091D01*
X134695543Y-98765183D01*
X134695474Y-98764806D01*
X134695518Y-98764598D01*
X134695371Y-98763107D01*
X134695370Y-98763102D01*
X134694863Y-98761077D01*
X134694667Y-98760783D01*
X134672457Y-98727543D01*
X134672456Y-98727542D01*
X134639214Y-98705331D01*
X134639213Y-98705330D01*
X134639212Y-98705330D01*
X134609901Y-98699500D01*
X134609898Y-98699500D01*
X133590032Y-98699500D01*
X133589246Y-98699671D01*
X133578214Y-98701865D01*
X133565517Y-98704390D01*
X133563100Y-98704628D01*
X133562250Y-98704886D01*
X133562249Y-98704885D01*
X133560787Y-98705329D01*
X133527541Y-98727543D01*
X133505330Y-98760784D01*
X133505303Y-98760874D01*
X133505302Y-98760924D01*
X133499500Y-98790095D01*
X130602934Y-98790095D01*
X130591896Y-98779057D01*
X130436843Y-98624002D01*
X130410590Y-98597749D01*
X130410587Y-98597747D01*
X130394387Y-98591037D01*
X130378183Y-98584325D01*
X130355271Y-98574835D01*
X129444729Y-98574835D01*
X129444727Y-98574835D01*
X129407930Y-98590077D01*
X129407921Y-98590081D01*
X129405615Y-98591037D01*
X129389411Y-98597748D01*
X129389409Y-98597750D01*
X129384346Y-98602812D01*
X129384344Y-98602814D01*
X129004391Y-98982766D01*
X128988496Y-98993387D01*
X128975685Y-98998694D01*
X128944252Y-99000756D01*
X128939564Y-98999500D01*
X128939563Y-98999500D01*
X128939562Y-98999500D01*
X128860438Y-98999500D01*
X128860436Y-98999500D01*
X128860434Y-98999500D01*
X128790242Y-99018309D01*
X128790237Y-99018309D01*
X128790238Y-99018310D01*
X128784006Y-99019979D01*
X128713581Y-99060641D01*
X128710924Y-99064104D01*
X128664104Y-99110924D01*
X128660641Y-99113581D01*
X128619979Y-99184006D01*
X128618310Y-99190238D01*
X128618309Y-99190242D01*
X128599500Y-99260434D01*
X128599500Y-99339564D01*
X128602297Y-99350001D01*
X128619979Y-99415989D01*
X128619979Y-99415991D01*
X128659250Y-99484008D01*
X128659540Y-99484511D01*
X128715489Y-99540460D01*
X128784011Y-99580021D01*
X128819476Y-99589523D01*
X128819477Y-99589524D01*
X128839957Y-99595012D01*
X128860436Y-99600500D01*
X128860438Y-99600500D01*
X128939563Y-99600500D01*
X128939564Y-99600500D01*
X128966230Y-99593354D01*
X129015989Y-99580021D01*
X129084511Y-99540460D01*
X129140460Y-99484511D01*
X129180021Y-99415989D01*
X129197703Y-99350000D01*
X129200500Y-99339563D01*
X129200500Y-99260439D01*
X129200269Y-99259576D01*
X129200184Y-99259261D01*
X129198929Y-99240165D01*
X129200739Y-99226418D01*
X129214672Y-99198166D01*
X129353298Y-99059540D01*
X129515761Y-98897077D01*
X129531653Y-98886458D01*
X129548298Y-98879563D01*
X129567047Y-98875835D01*
X130232954Y-98875835D01*
X130251700Y-98879563D01*
X130268340Y-98886455D01*
X130284235Y-98897075D01*
X130328256Y-98941095D01*
X130338878Y-98956992D01*
X130345770Y-98973630D01*
X130349500Y-98992382D01*
X130349500Y-99016408D01*
X130345771Y-99035159D01*
X130342916Y-99042052D01*
X130316398Y-99068570D01*
X130309503Y-99071426D01*
X130290753Y-99075156D01*
X130043491Y-99075156D01*
X129974051Y-99097717D01*
X129914980Y-99140636D01*
X129872061Y-99199707D01*
X129849500Y-99269147D01*
X129849500Y-99382163D01*
X129872062Y-99451606D01*
X129899209Y-99488970D01*
X129907214Y-99506334D01*
X129909976Y-99517841D01*
X129907605Y-99548016D01*
X129907163Y-99549084D01*
X129901529Y-99559148D01*
X129872063Y-99599704D01*
X129872062Y-99599705D01*
X129849500Y-99669147D01*
X129849500Y-99782163D01*
X129872062Y-99851606D01*
X129899209Y-99888970D01*
X129907214Y-99906334D01*
X129909976Y-99917841D01*
X129907605Y-99948016D01*
X129907163Y-99949084D01*
X129901529Y-99959148D01*
X129872063Y-99999704D01*
X129872062Y-99999705D01*
X129849500Y-100069147D01*
X129849500Y-100069149D01*
X129849500Y-100182162D01*
X129872062Y-100251605D01*
X129889583Y-100275720D01*
X129914980Y-100310676D01*
X129951199Y-100336991D01*
X129953984Y-100339797D01*
X129954971Y-100342206D01*
X129960980Y-100348706D01*
X129965405Y-100355925D01*
X129965026Y-100356157D01*
X129971777Y-100368065D01*
X129972039Y-100368861D01*
X129974365Y-100387737D01*
X129974339Y-100388101D01*
X129972071Y-100399679D01*
X129948308Y-100472818D01*
X129947000Y-100472393D01*
X129939294Y-100489307D01*
X129936265Y-100492938D01*
X129935376Y-100492196D01*
X129909351Y-100508362D01*
X129909620Y-100509480D01*
X129904411Y-100510730D01*
X129880295Y-100510413D01*
X129839568Y-100499500D01*
X129839565Y-100499500D01*
X129839562Y-100499500D01*
X129760438Y-100499500D01*
X129760435Y-100499500D01*
X129760430Y-100499500D01*
X129759238Y-100499820D01*
X129740160Y-100501068D01*
X129738168Y-100500806D01*
X129726414Y-100499258D01*
X129698166Y-100485326D01*
X129568997Y-100356157D01*
X129436269Y-100223428D01*
X129436267Y-100223427D01*
X129436257Y-100223422D01*
X129403863Y-100210005D01*
X129380951Y-100200515D01*
X122919049Y-100200515D01*
X122909763Y-100204361D01*
X122880154Y-100216623D01*
X122880135Y-100216633D01*
X122863734Y-100223427D01*
X122863732Y-100223428D01*
X122863731Y-100223429D01*
X122858799Y-100228360D01*
X122858797Y-100228362D01*
X121272414Y-101814745D01*
X121272412Y-101814746D01*
X121268683Y-101823749D01*
X121268683Y-101823750D01*
X121261928Y-101840061D01*
X121261927Y-101840064D01*
X121249500Y-101870062D01*
X121249500Y-105129932D01*
X121249501Y-105129941D01*
X121249512Y-105129966D01*
X121249523Y-105129992D01*
X121257738Y-105149826D01*
X121258990Y-105152847D01*
X121258990Y-105152848D01*
X121272407Y-105185242D01*
X121272412Y-105185252D01*
X121272414Y-105185255D01*
X121805237Y-105718077D01*
X121815860Y-105733975D01*
X121820117Y-105744253D01*
X121822177Y-105775682D01*
X121816026Y-105798642D01*
X121816034Y-105798725D01*
X121799500Y-105860432D01*
X121799500Y-105860436D01*
X121799500Y-105939563D01*
X121817384Y-106006306D01*
X121818309Y-106009756D01*
X121818310Y-106009761D01*
X121819979Y-106015992D01*
X121853458Y-106073977D01*
X121853457Y-106073977D01*
X121859534Y-106084502D01*
X121859537Y-106084506D01*
X121859540Y-106084511D01*
X121915489Y-106140460D01*
X121984011Y-106180021D01*
X122019476Y-106189523D01*
X122019477Y-106189524D01*
X122039957Y-106195012D01*
X122060436Y-106200500D01*
X122060438Y-106200500D01*
X122139563Y-106200500D01*
X122139564Y-106200500D01*
X122166230Y-106193354D01*
X122215989Y-106180021D01*
X122284511Y-106140460D01*
X122340460Y-106084511D01*
X122380021Y-106015989D01*
X122399971Y-105941537D01*
X122400500Y-105939563D01*
X122400500Y-105860436D01*
X122385779Y-105805500D01*
X122385779Y-105805499D01*
X122380259Y-105784901D01*
X122380021Y-105784011D01*
X122380020Y-105784009D01*
X122380020Y-105784008D01*
X122354939Y-105740568D01*
X122340460Y-105715489D01*
X122284511Y-105659540D01*
X122284509Y-105659539D01*
X122284507Y-105659537D01*
X122274796Y-105653931D01*
X122268853Y-105650500D01*
X122215990Y-105619979D01*
X122215989Y-105619978D01*
X122215988Y-105619978D01*
X122139564Y-105599499D01*
X122136383Y-105599081D01*
X122136482Y-105598326D01*
X122123631Y-105595770D01*
X122106988Y-105588876D01*
X122091094Y-105578255D01*
X121571744Y-105058904D01*
X121561122Y-105043007D01*
X121554229Y-105026366D01*
X121550500Y-105007616D01*
X121550500Y-101992382D01*
X121554229Y-101973632D01*
X121555522Y-101970510D01*
X121561123Y-101956988D01*
X121571741Y-101941097D01*
X121852404Y-101660434D01*
X123099500Y-101660434D01*
X123099500Y-101739564D01*
X123106446Y-101765485D01*
X123117371Y-101806258D01*
X123118309Y-101809756D01*
X123118310Y-101809761D01*
X123119979Y-101815991D01*
X123157233Y-101880517D01*
X123159536Y-101884505D01*
X123159540Y-101884511D01*
X123215489Y-101940460D01*
X123284011Y-101980021D01*
X123319476Y-101989523D01*
X123319477Y-101989524D01*
X123339957Y-101995012D01*
X123360436Y-102000500D01*
X123360438Y-102000500D01*
X123439563Y-102000500D01*
X123439564Y-102000500D01*
X123466230Y-101993354D01*
X123515989Y-101980021D01*
X123584511Y-101940460D01*
X123640460Y-101884511D01*
X123674025Y-101826375D01*
X123680021Y-101815990D01*
X123680020Y-101815989D01*
X123680021Y-101815989D01*
X123697837Y-101749500D01*
X123700500Y-101739563D01*
X123700500Y-101660437D01*
X123700500Y-101660436D01*
X123688299Y-101614904D01*
X123680021Y-101584011D01*
X123680021Y-101584010D01*
X123680020Y-101584007D01*
X123665092Y-101558152D01*
X123650164Y-101532297D01*
X123644226Y-101522012D01*
X123640462Y-101515492D01*
X123640457Y-101515486D01*
X123584511Y-101459540D01*
X123515992Y-101419979D01*
X123515988Y-101419978D01*
X123439566Y-101399500D01*
X123439564Y-101399500D01*
X123439562Y-101399500D01*
X123360438Y-101399500D01*
X123360436Y-101399500D01*
X123360434Y-101399500D01*
X123290242Y-101418309D01*
X123290237Y-101418309D01*
X123290238Y-101418310D01*
X123284006Y-101419979D01*
X123213581Y-101460641D01*
X123210924Y-101464104D01*
X123164104Y-101510924D01*
X123160641Y-101513581D01*
X123119979Y-101584006D01*
X123118310Y-101590238D01*
X123118309Y-101590242D01*
X123099500Y-101660434D01*
X121852404Y-101660434D01*
X122990082Y-100522756D01*
X123005973Y-100512138D01*
X123022618Y-100505243D01*
X123041367Y-100501515D01*
X126786153Y-100501515D01*
X126804899Y-100505242D01*
X126811793Y-100508098D01*
X126838313Y-100534613D01*
X126838538Y-100535155D01*
X126840594Y-100566580D01*
X126840004Y-100568782D01*
X126835106Y-100580604D01*
X126832770Y-100584650D01*
X126832556Y-100585021D01*
X126832543Y-100585053D01*
X126832447Y-100585424D01*
X126812076Y-100661447D01*
X126812076Y-100706000D01*
X126797724Y-100740648D01*
X126763076Y-100755000D01*
X125320000Y-100755000D01*
X125320000Y-109406000D01*
X125305648Y-109440648D01*
X125271000Y-109455000D01*
X120433426Y-109455000D01*
X120398778Y-109440648D01*
X120384426Y-109406000D01*
X120386096Y-109393317D01*
X120400500Y-109339563D01*
X120400500Y-109260434D01*
X120389659Y-109219979D01*
X120380020Y-109184007D01*
X120362577Y-109153797D01*
X120340459Y-109115488D01*
X120316511Y-109091540D01*
X120305890Y-109075647D01*
X120303033Y-109068750D01*
X120303033Y-109031251D01*
X120305891Y-109024350D01*
X120316506Y-109008464D01*
X120340459Y-108984512D01*
X120340460Y-108984511D01*
X120380021Y-108915989D01*
X120400218Y-108840615D01*
X120400500Y-108839563D01*
X120400500Y-108760436D01*
X120385910Y-108705991D01*
X120385910Y-108705990D01*
X120380021Y-108684011D01*
X120380020Y-108684009D01*
X120380020Y-108684008D01*
X120370900Y-108668213D01*
X120354939Y-108640568D01*
X120354938Y-108640567D01*
X120351444Y-108634515D01*
X120340460Y-108615489D01*
X120316511Y-108591540D01*
X120305890Y-108575647D01*
X120303033Y-108568750D01*
X120303033Y-108531251D01*
X120305891Y-108524350D01*
X120316506Y-108508464D01*
X120340459Y-108484512D01*
X120340460Y-108484511D01*
X120378004Y-108419482D01*
X120380020Y-108415991D01*
X120380020Y-108415990D01*
X120380021Y-108415989D01*
X120397827Y-108349539D01*
X120400500Y-108339563D01*
X120400500Y-108260436D01*
X120388299Y-108214904D01*
X120380021Y-108184011D01*
X120380021Y-108184010D01*
X120380020Y-108184007D01*
X120362577Y-108153797D01*
X120340459Y-108115488D01*
X120284511Y-108059540D01*
X120275782Y-108054500D01*
X120215992Y-108019979D01*
X120215988Y-108019978D01*
X120139566Y-107999500D01*
X120139564Y-107999500D01*
X120139562Y-107999500D01*
X120060438Y-107999500D01*
X120060436Y-107999500D01*
X120060434Y-107999500D01*
X119990242Y-108018309D01*
X119990237Y-108018309D01*
X119990238Y-108018310D01*
X119984006Y-108019979D01*
X119913581Y-108060641D01*
X119910924Y-108064104D01*
X119864104Y-108110924D01*
X119860641Y-108113581D01*
X119819979Y-108184006D01*
X119818310Y-108190238D01*
X119818309Y-108190242D01*
X119799500Y-108260434D01*
X119799500Y-108339563D01*
X119818309Y-108409756D01*
X119818310Y-108409761D01*
X119819979Y-108415990D01*
X119819979Y-108415991D01*
X119859540Y-108484511D01*
X119859542Y-108484513D01*
X119859543Y-108484514D01*
X119883488Y-108508459D01*
X119894111Y-108524356D01*
X119896966Y-108531249D01*
X119896965Y-108568752D01*
X119896965Y-108568753D01*
X119894110Y-108575645D01*
X119883488Y-108591540D01*
X119864104Y-108610924D01*
X119860641Y-108613581D01*
X119819979Y-108684006D01*
X119818310Y-108690238D01*
X119818309Y-108690242D01*
X119799500Y-108760434D01*
X119799500Y-108839564D01*
X119818309Y-108909756D01*
X119818310Y-108909761D01*
X119819979Y-108915992D01*
X119845733Y-108960598D01*
X119859540Y-108984511D01*
X119859543Y-108984514D01*
X119883488Y-109008459D01*
X119894111Y-109024356D01*
X119896966Y-109031249D01*
X119896965Y-109068752D01*
X119896965Y-109068753D01*
X119894110Y-109075645D01*
X119883488Y-109091540D01*
X119864104Y-109110924D01*
X119860641Y-109113581D01*
X119819979Y-109184006D01*
X119818310Y-109190238D01*
X119818309Y-109190242D01*
X119799500Y-109260434D01*
X119799500Y-109339564D01*
X119805093Y-109360436D01*
X119811409Y-109384008D01*
X119813904Y-109393317D01*
X119809010Y-109430499D01*
X119779257Y-109453330D01*
X119766574Y-109455000D01*
X118020000Y-109455000D01*
X112039712Y-109455000D01*
X112162671Y-109384010D01*
X112168716Y-109380520D01*
X112280520Y-109268716D01*
X112359577Y-109131784D01*
X112397101Y-108991740D01*
X112400500Y-108985854D01*
X112400500Y-108820289D01*
X112399669Y-108817843D01*
X112359677Y-108668592D01*
X112359583Y-108668231D01*
X112359576Y-108668213D01*
X112343615Y-108640567D01*
X112280524Y-108531290D01*
X112280522Y-108531288D01*
X112280520Y-108531284D01*
X112168715Y-108419479D01*
X112168701Y-108419470D01*
X112031785Y-108340422D01*
X112031761Y-108340412D01*
X112031362Y-108340309D01*
X111897929Y-108304556D01*
X111885349Y-108301185D01*
X111879061Y-108299500D01*
X111879060Y-108299500D01*
X111879057Y-108299500D01*
X111720943Y-108299500D01*
X111720940Y-108299500D01*
X111720937Y-108299500D01*
X111568636Y-108340309D01*
X111568238Y-108340412D01*
X111568213Y-108340422D01*
X111431292Y-108419473D01*
X111431275Y-108419486D01*
X111319486Y-108531275D01*
X111319473Y-108531292D01*
X111240422Y-108668213D01*
X111240412Y-108668238D01*
X111240309Y-108668636D01*
X111199500Y-108820935D01*
X109798240Y-108820935D01*
X109553375Y-108504501D01*
X109493406Y-108427004D01*
X109492412Y-108425673D01*
X109491424Y-108424302D01*
X109490472Y-108422932D01*
X109488160Y-108419482D01*
X109243561Y-108054500D01*
X109201097Y-107991137D01*
X109200218Y-107989776D01*
X109199331Y-107988351D01*
X109198496Y-107986955D01*
X108943359Y-107543686D01*
X108943173Y-107543359D01*
X108943039Y-107543122D01*
X108942924Y-107542917D01*
X108937934Y-107533992D01*
X108937284Y-107532791D01*
X108936638Y-107531556D01*
X108936023Y-107530340D01*
X108905966Y-107468767D01*
X108852119Y-107358457D01*
X108725192Y-107098440D01*
X108724990Y-107098018D01*
X108724911Y-107097852D01*
X108724795Y-107097607D01*
X108721456Y-107090489D01*
X108704182Y-107053667D01*
X108703694Y-107052592D01*
X108703142Y-107051328D01*
X108702667Y-107050199D01*
X108530957Y-106627628D01*
X108530816Y-106627275D01*
X108530637Y-106626821D01*
X108530492Y-106626448D01*
X108524354Y-106610500D01*
X108522929Y-106606797D01*
X108504450Y-106558782D01*
X108504051Y-106557706D01*
X108503633Y-106556536D01*
X108503247Y-106555410D01*
X108365871Y-106137808D01*
X108365707Y-106137301D01*
X108365520Y-106136711D01*
X108365363Y-106136205D01*
X108364400Y-106133048D01*
X108355995Y-106105499D01*
X108339531Y-106051537D01*
X108339266Y-106050635D01*
X108338919Y-106049397D01*
X108338656Y-106048412D01*
X108290726Y-105860436D01*
X111999500Y-105860436D01*
X111999500Y-105939563D01*
X112000028Y-105941534D01*
X112000028Y-105941537D01*
X112018309Y-106009756D01*
X112018310Y-106009761D01*
X112019979Y-106015992D01*
X112040233Y-106051071D01*
X112059540Y-106084511D01*
X112059543Y-106084514D01*
X112083488Y-106108459D01*
X112094111Y-106124356D01*
X112096966Y-106131249D01*
X112096965Y-106168752D01*
X112096965Y-106168753D01*
X112094110Y-106175645D01*
X112083488Y-106191540D01*
X112064104Y-106210924D01*
X112060641Y-106213581D01*
X112019979Y-106284006D01*
X112018310Y-106290238D01*
X112018309Y-106290242D01*
X111999500Y-106360434D01*
X111999500Y-106439564D01*
X112011003Y-106482494D01*
X112019979Y-106515989D01*
X112019979Y-106515991D01*
X112033521Y-106539445D01*
X112034409Y-106540984D01*
X112034411Y-106540987D01*
X112044064Y-106557706D01*
X112059540Y-106584511D01*
X112115489Y-106640460D01*
X112184011Y-106680021D01*
X112219476Y-106689523D01*
X112219477Y-106689524D01*
X112239957Y-106695012D01*
X112260436Y-106700500D01*
X112260438Y-106700500D01*
X112339563Y-106700500D01*
X112339564Y-106700500D01*
X112366230Y-106693354D01*
X112415989Y-106680021D01*
X112484511Y-106640460D01*
X112540460Y-106584511D01*
X112574720Y-106525170D01*
X112580020Y-106515991D01*
X112580020Y-106515990D01*
X112580021Y-106515989D01*
X112588996Y-106482495D01*
X112600500Y-106439564D01*
X112600500Y-106360436D01*
X112586305Y-106307464D01*
X112580021Y-106284011D01*
X112580020Y-106284009D01*
X112580020Y-106284008D01*
X112540459Y-106215488D01*
X112516511Y-106191540D01*
X112505890Y-106175647D01*
X112503033Y-106168750D01*
X112503033Y-106131251D01*
X112505891Y-106124350D01*
X112516506Y-106108464D01*
X112540459Y-106084512D01*
X112540460Y-106084511D01*
X112580021Y-106015989D01*
X112599971Y-105941537D01*
X112600500Y-105939563D01*
X112600500Y-105860436D01*
X112585779Y-105805500D01*
X112585779Y-105805499D01*
X112580259Y-105784901D01*
X112580021Y-105784011D01*
X112580020Y-105784009D01*
X112580020Y-105784008D01*
X112554939Y-105740568D01*
X112540460Y-105715489D01*
X112484511Y-105659540D01*
X112484509Y-105659539D01*
X112484507Y-105659537D01*
X112474796Y-105653931D01*
X112468853Y-105650500D01*
X112415990Y-105619979D01*
X112415989Y-105619978D01*
X112415988Y-105619978D01*
X112339566Y-105599500D01*
X112339564Y-105599500D01*
X112339562Y-105599500D01*
X112260438Y-105599500D01*
X112260436Y-105599500D01*
X112260434Y-105599500D01*
X112190242Y-105618309D01*
X112190237Y-105618309D01*
X112190238Y-105618310D01*
X112184006Y-105619979D01*
X112113581Y-105660641D01*
X112110924Y-105664104D01*
X112064104Y-105710924D01*
X112060641Y-105713581D01*
X112019979Y-105784006D01*
X112019189Y-105786955D01*
X112019188Y-105786960D01*
X111999500Y-105860436D01*
X108290726Y-105860436D01*
X108232750Y-105633060D01*
X108232618Y-105632527D01*
X108232495Y-105632021D01*
X108232370Y-105631493D01*
X108210234Y-105534722D01*
X108210028Y-105533780D01*
X108209787Y-105532609D01*
X108209610Y-105531697D01*
X108200580Y-105482495D01*
X108133574Y-105117399D01*
X108133486Y-105116901D01*
X108133340Y-105116036D01*
X108133258Y-105115525D01*
X108129447Y-105090913D01*
X108123967Y-105055524D01*
X108117015Y-105010634D01*
X108116906Y-105009876D01*
X108116763Y-105008813D01*
X108116667Y-105008043D01*
X108069510Y-104593820D01*
X108069448Y-104593234D01*
X108069374Y-104592471D01*
X108069319Y-104591861D01*
X108060269Y-104482252D01*
X108060211Y-104481449D01*
X108060157Y-104480600D01*
X108060109Y-104479719D01*
X108056062Y-104390242D01*
X108041647Y-104071580D01*
X108044524Y-104052686D01*
X108047065Y-104045670D01*
X108072354Y-104017983D01*
X108077423Y-104015610D01*
X108100346Y-104011035D01*
X108215845Y-104016112D01*
X108218233Y-104016411D01*
X108222183Y-104016390D01*
X108234142Y-104016916D01*
X108237875Y-104015297D01*
X108323447Y-104010627D01*
X108582639Y-103996484D01*
X108941790Y-103941019D01*
X109188731Y-103877456D01*
X109293719Y-103850432D01*
X109293720Y-103850431D01*
X109293726Y-103850430D01*
X109293731Y-103850427D01*
X109293848Y-103850398D01*
X109295565Y-103849955D01*
X109297582Y-103849019D01*
X109351571Y-103829272D01*
X109353560Y-103828730D01*
X109361752Y-103825548D01*
X109635021Y-103725598D01*
X109700601Y-103693971D01*
X109709015Y-103690705D01*
X109734679Y-103677536D01*
X109962354Y-103567740D01*
X110034325Y-103523806D01*
X110048283Y-103516646D01*
X110081114Y-103495243D01*
X110272536Y-103378393D01*
X110349291Y-103320433D01*
X110367722Y-103308420D01*
X110401878Y-103280723D01*
X110521900Y-103190091D01*
X113699500Y-103190091D01*
X113699500Y-104209896D01*
X113699535Y-104210188D01*
X113699732Y-104211062D01*
X113704390Y-104234480D01*
X113704723Y-104237866D01*
X113705581Y-104240265D01*
X113708007Y-104243220D01*
X113726142Y-104270360D01*
X113726142Y-104270361D01*
X113727541Y-104272455D01*
X113727547Y-104272461D01*
X113760783Y-104294668D01*
X113760787Y-104294669D01*
X113790101Y-104300500D01*
X114809898Y-104300499D01*
X114839213Y-104294669D01*
X114872457Y-104272457D01*
X114894669Y-104239213D01*
X114900500Y-104209899D01*
X114900499Y-103190102D01*
X114894669Y-103160787D01*
X114894667Y-103160784D01*
X114894667Y-103160783D01*
X114872457Y-103127543D01*
X114872455Y-103127541D01*
X114872454Y-103127540D01*
X114839211Y-103105329D01*
X114809907Y-103099500D01*
X114809904Y-103099500D01*
X114809899Y-103099500D01*
X114579247Y-103099500D01*
X114560499Y-103095771D01*
X114553601Y-103092914D01*
X114527085Y-103066398D01*
X114524227Y-103059497D01*
X114520500Y-103040752D01*
X114520500Y-101397778D01*
X114675376Y-101397778D01*
X114686082Y-101409086D01*
X114699081Y-101436382D01*
X114699499Y-101439563D01*
X114718309Y-101509756D01*
X114718310Y-101509761D01*
X114719979Y-101515992D01*
X114729394Y-101532298D01*
X114759540Y-101584511D01*
X114759543Y-101584514D01*
X114783488Y-101608459D01*
X114794111Y-101624356D01*
X114796966Y-101631249D01*
X114796965Y-101668752D01*
X114796965Y-101668753D01*
X114794110Y-101675645D01*
X114783488Y-101691540D01*
X114764104Y-101710924D01*
X114760641Y-101713581D01*
X114719979Y-101784006D01*
X114718310Y-101790238D01*
X114718309Y-101790242D01*
X114699500Y-101860434D01*
X114699500Y-101939563D01*
X114699499Y-101939563D01*
X114711589Y-101984680D01*
X114717735Y-102007616D01*
X114718309Y-102009756D01*
X114718310Y-102009761D01*
X114719979Y-102015992D01*
X114730070Y-102033469D01*
X114759540Y-102084511D01*
X114815489Y-102140460D01*
X114884011Y-102180021D01*
X114913833Y-102188012D01*
X114960436Y-102200500D01*
X114960438Y-102200500D01*
X115039563Y-102200500D01*
X115039564Y-102200500D01*
X115066230Y-102193354D01*
X115115989Y-102180021D01*
X115184511Y-102140460D01*
X115240460Y-102084511D01*
X115274720Y-102025170D01*
X115280020Y-102015991D01*
X115280020Y-102015990D01*
X115280021Y-102015989D01*
X115297560Y-101950533D01*
X115300500Y-101939563D01*
X115300500Y-101860436D01*
X115288590Y-101815991D01*
X115288589Y-101815989D01*
X115283642Y-101797525D01*
X115280021Y-101784011D01*
X115280020Y-101784009D01*
X115280020Y-101784008D01*
X115240459Y-101715488D01*
X115216511Y-101691540D01*
X115205890Y-101675647D01*
X115203033Y-101668750D01*
X115203033Y-101631251D01*
X115205891Y-101624350D01*
X115216506Y-101608464D01*
X115240459Y-101584512D01*
X115240460Y-101584511D01*
X115280021Y-101515989D01*
X115299474Y-101443391D01*
X115300500Y-101439563D01*
X115300500Y-101360436D01*
X115291843Y-101328134D01*
X115291843Y-101328132D01*
X115280263Y-101284914D01*
X115280021Y-101284011D01*
X115280020Y-101284009D01*
X115280020Y-101284008D01*
X115259046Y-101247681D01*
X115254358Y-101239561D01*
X115254357Y-101239560D01*
X115240462Y-101215492D01*
X115240461Y-101215491D01*
X115240460Y-101215489D01*
X115184511Y-101159540D01*
X115184510Y-101159539D01*
X115180539Y-101157247D01*
X115115990Y-101119979D01*
X115115989Y-101119978D01*
X115115988Y-101119978D01*
X115039566Y-101099500D01*
X115039564Y-101099500D01*
X115039562Y-101099500D01*
X114960438Y-101099500D01*
X114960436Y-101099500D01*
X114960434Y-101099500D01*
X114890242Y-101118309D01*
X114890237Y-101118309D01*
X114890238Y-101118310D01*
X114884006Y-101119979D01*
X114813581Y-101160641D01*
X114810924Y-101164104D01*
X114764104Y-101210924D01*
X114760641Y-101213581D01*
X114719979Y-101284006D01*
X114718310Y-101290238D01*
X114718309Y-101290242D01*
X114699499Y-101360435D01*
X114699081Y-101363617D01*
X114691189Y-101377287D01*
X114685148Y-101391872D01*
X114682022Y-101393166D01*
X114680331Y-101396097D01*
X114675376Y-101397778D01*
X114520500Y-101397778D01*
X114520500Y-100076670D01*
X114524229Y-100057920D01*
X114526846Y-100051602D01*
X114531123Y-100041276D01*
X114541741Y-100025385D01*
X115786352Y-98780775D01*
X115821000Y-98766423D01*
X115855648Y-98780775D01*
X115870000Y-98815423D01*
X115870000Y-101105000D01*
X117220000Y-101105000D01*
X117220000Y-98555000D01*
X116130423Y-98555000D01*
X116095775Y-98540648D01*
X116081423Y-98506000D01*
X116095773Y-98471353D01*
X116145387Y-98421739D01*
X116161276Y-98411123D01*
X116177921Y-98404228D01*
X116196670Y-98400500D01*
X121073577Y-98400500D01*
X121092323Y-98404227D01*
X121099217Y-98407083D01*
X121125737Y-98433598D01*
X121125962Y-98434140D01*
X121128018Y-98465565D01*
X121127428Y-98467767D01*
X121122530Y-98479589D01*
X121120082Y-98483829D01*
X121119980Y-98484006D01*
X121119967Y-98484038D01*
X121119871Y-98484409D01*
X121099500Y-98560432D01*
X121099500Y-98639564D01*
X121104931Y-98659832D01*
X121117123Y-98705332D01*
X121118309Y-98709756D01*
X121118310Y-98709761D01*
X121119979Y-98715992D01*
X121145733Y-98760598D01*
X121159540Y-98784511D01*
X121159543Y-98784514D01*
X121183488Y-98808459D01*
X121194111Y-98824356D01*
X121196966Y-98831249D01*
X121196965Y-98868752D01*
X121196965Y-98868753D01*
X121194110Y-98875645D01*
X121183488Y-98891540D01*
X121164104Y-98910924D01*
X121160641Y-98913581D01*
X121119979Y-98984006D01*
X121118310Y-98990238D01*
X121118309Y-98990242D01*
X121099500Y-99060434D01*
X121099500Y-99139564D01*
X121110474Y-99180517D01*
X121116254Y-99202089D01*
X121118309Y-99209756D01*
X121118310Y-99209761D01*
X121119979Y-99215992D01*
X121125999Y-99226418D01*
X121159540Y-99284511D01*
X121159543Y-99284514D01*
X121183488Y-99308459D01*
X121194111Y-99324356D01*
X121196966Y-99331249D01*
X121196965Y-99368752D01*
X121196965Y-99368753D01*
X121194110Y-99375645D01*
X121183488Y-99391540D01*
X121164104Y-99410924D01*
X121160641Y-99413581D01*
X121119979Y-99484006D01*
X121118310Y-99490238D01*
X121118309Y-99490242D01*
X121099500Y-99560434D01*
X121099500Y-99560436D01*
X121099500Y-99639563D01*
X121114852Y-99696857D01*
X121118309Y-99709756D01*
X121118310Y-99709761D01*
X121119979Y-99715992D01*
X121136714Y-99744976D01*
X121159540Y-99784511D01*
X121159543Y-99784514D01*
X121183488Y-99808459D01*
X121194111Y-99824356D01*
X121196966Y-99831249D01*
X121196965Y-99868752D01*
X121196965Y-99868753D01*
X121194110Y-99875645D01*
X121183488Y-99891540D01*
X121164104Y-99910924D01*
X121160641Y-99913581D01*
X121119979Y-99984006D01*
X121118310Y-99990238D01*
X121118309Y-99990242D01*
X121099500Y-100060434D01*
X121099500Y-100139564D01*
X121116863Y-100204361D01*
X121119979Y-100215989D01*
X121119979Y-100215991D01*
X121158515Y-100282735D01*
X121158934Y-100283461D01*
X121158942Y-100283476D01*
X121159539Y-100284510D01*
X121159540Y-100284511D01*
X121215489Y-100340460D01*
X121284011Y-100380021D01*
X121319476Y-100389523D01*
X121319477Y-100389524D01*
X121338584Y-100394644D01*
X121360436Y-100400500D01*
X121360438Y-100400500D01*
X121439563Y-100400500D01*
X121439564Y-100400500D01*
X121466230Y-100393354D01*
X121515989Y-100380021D01*
X121584511Y-100340460D01*
X121640460Y-100284511D01*
X121680021Y-100215989D01*
X121699049Y-100144976D01*
X121700500Y-100139563D01*
X121700500Y-100060437D01*
X121691107Y-100025382D01*
X121684227Y-99999708D01*
X121680021Y-99984011D01*
X121680020Y-99984009D01*
X121680020Y-99984008D01*
X121678541Y-99981447D01*
X121646330Y-99925656D01*
X121640463Y-99915494D01*
X121640462Y-99915493D01*
X121640460Y-99915489D01*
X121616511Y-99891540D01*
X121605890Y-99875647D01*
X121603033Y-99868750D01*
X121603033Y-99831251D01*
X121605891Y-99824350D01*
X121616506Y-99808464D01*
X121640459Y-99784512D01*
X121640460Y-99784511D01*
X121680021Y-99715989D01*
X121697274Y-99651602D01*
X121700500Y-99639563D01*
X121700500Y-99560436D01*
X121687166Y-99510676D01*
X121687166Y-99510675D01*
X121681691Y-99490242D01*
X121680021Y-99484011D01*
X121680020Y-99484009D01*
X121680020Y-99484008D01*
X121654939Y-99440568D01*
X121640460Y-99415489D01*
X121616511Y-99391540D01*
X121605890Y-99375647D01*
X121603033Y-99368750D01*
X121603033Y-99331251D01*
X121605891Y-99324350D01*
X121616506Y-99308464D01*
X121640459Y-99284512D01*
X121640460Y-99284511D01*
X121680021Y-99215989D01*
X121700212Y-99140636D01*
X121700500Y-99139563D01*
X121700500Y-99060436D01*
X121685380Y-99004011D01*
X121685380Y-99004010D01*
X121681691Y-98990242D01*
X121680021Y-98984011D01*
X121680020Y-98984009D01*
X121680020Y-98984008D01*
X121640459Y-98915488D01*
X121616511Y-98891540D01*
X121605890Y-98875647D01*
X121603033Y-98868750D01*
X121603033Y-98831251D01*
X121605891Y-98824350D01*
X121616506Y-98808464D01*
X121640459Y-98784512D01*
X121640460Y-98784511D01*
X121680021Y-98715989D01*
X121696171Y-98655713D01*
X121700500Y-98639563D01*
X121700500Y-98560437D01*
X121699138Y-98555356D01*
X121691843Y-98528134D01*
X121680021Y-98484011D01*
X121680019Y-98484008D01*
X121680019Y-98484006D01*
X121680016Y-98484000D01*
X121679970Y-98483829D01*
X121679177Y-98482547D01*
X121679041Y-98482312D01*
X121678419Y-98480473D01*
X121678361Y-98480343D01*
X121678373Y-98480337D01*
X121672969Y-98464337D01*
X121671995Y-98456943D01*
X121681685Y-98420736D01*
X121682037Y-98420277D01*
X121708254Y-98402757D01*
X121710464Y-98402164D01*
X121723128Y-98400500D01*
X124429934Y-98400500D01*
X124429936Y-98400500D01*
X124447657Y-98393159D01*
X124452846Y-98391010D01*
X124452848Y-98391009D01*
X124456438Y-98389522D01*
X124485252Y-98377588D01*
X124591098Y-98271739D01*
X124606991Y-98261121D01*
X124623632Y-98254229D01*
X124642381Y-98250500D01*
X124901867Y-98250500D01*
X124920617Y-98254229D01*
X124933429Y-98259536D01*
X124957111Y-98280306D01*
X124959535Y-98284504D01*
X124959537Y-98284508D01*
X124959540Y-98284511D01*
X125015489Y-98340460D01*
X125084011Y-98380021D01*
X125119476Y-98389523D01*
X125119477Y-98389524D01*
X125139957Y-98395012D01*
X125160436Y-98400500D01*
X125160438Y-98400500D01*
X125239563Y-98400500D01*
X125239564Y-98400500D01*
X125274978Y-98391010D01*
X125315989Y-98380021D01*
X125384511Y-98340460D01*
X125440460Y-98284511D01*
X125478004Y-98219482D01*
X125480020Y-98215991D01*
X125480020Y-98215990D01*
X125480021Y-98215989D01*
X125496805Y-98153352D01*
X125500500Y-98139563D01*
X125500500Y-98060436D01*
X125490853Y-98024437D01*
X125480021Y-97984011D01*
X125480020Y-97984009D01*
X125480020Y-97984008D01*
X125440459Y-97915488D01*
X125384511Y-97859540D01*
X125315992Y-97819979D01*
X125315988Y-97819978D01*
X125239566Y-97799500D01*
X125239564Y-97799500D01*
X125239562Y-97799500D01*
X125160438Y-97799500D01*
X125160436Y-97799500D01*
X125160434Y-97799500D01*
X125090242Y-97818309D01*
X125090237Y-97818309D01*
X125090238Y-97818310D01*
X125084006Y-97819979D01*
X125013793Y-97860518D01*
X125011712Y-97863297D01*
X125011288Y-97863740D01*
X124959542Y-97915486D01*
X124959535Y-97915495D01*
X124955984Y-97921645D01*
X124951919Y-97925903D01*
X124949973Y-97926761D01*
X124946317Y-97930931D01*
X124935320Y-97939371D01*
X124905487Y-97949500D01*
X124520062Y-97949500D01*
X124484436Y-97964257D01*
X124484431Y-97964259D01*
X124480950Y-97965702D01*
X124464746Y-97972413D01*
X124464745Y-97972415D01*
X124454972Y-97982187D01*
X124454967Y-97982191D01*
X124358904Y-98078255D01*
X124343010Y-98088876D01*
X124326371Y-98095769D01*
X124307617Y-98099500D01*
X116074352Y-98099500D01*
X116062814Y-98104278D01*
X116035457Y-98115608D01*
X116035436Y-98115619D01*
X116019035Y-98122413D01*
X116019034Y-98122414D01*
X116014102Y-98127345D01*
X116014100Y-98127347D01*
X114242415Y-99899030D01*
X114242408Y-99899045D01*
X114234072Y-99919173D01*
X114234070Y-99919177D01*
X114219500Y-99954345D01*
X114219500Y-103040752D01*
X114215771Y-103059501D01*
X114213169Y-103065786D01*
X114212916Y-103066396D01*
X114186398Y-103092914D01*
X114179503Y-103095770D01*
X114160753Y-103099500D01*
X113790032Y-103099500D01*
X113789246Y-103099671D01*
X113778214Y-103101865D01*
X113765517Y-103104390D01*
X113763100Y-103104628D01*
X113762250Y-103104886D01*
X113762249Y-103104885D01*
X113760787Y-103105329D01*
X113727541Y-103127543D01*
X113705330Y-103160784D01*
X113704625Y-103163107D01*
X113704388Y-103165522D01*
X113699500Y-103190091D01*
X110521900Y-103190091D01*
X110561452Y-103160224D01*
X110562088Y-103159774D01*
X110562521Y-103159418D01*
X110562548Y-103159398D01*
X110562552Y-103159394D01*
X110562555Y-103159392D01*
X110562558Y-103159389D01*
X110562567Y-103159380D01*
X110562748Y-103159232D01*
X110563263Y-103158738D01*
X110570900Y-103151689D01*
X110570939Y-103151652D01*
X110571193Y-103151418D01*
X110577425Y-103145664D01*
X110598967Y-103125777D01*
X110640529Y-103087405D01*
X110641670Y-103086383D01*
X110642847Y-103085365D01*
X110643957Y-103084435D01*
X110663904Y-103068263D01*
X110695090Y-103037102D01*
X110695620Y-103036583D01*
X110696353Y-103035879D01*
X110696895Y-103035369D01*
X110829566Y-102912889D01*
X110910115Y-102822264D01*
X110933650Y-102798751D01*
X110961600Y-102764339D01*
X111070992Y-102641266D01*
X111075893Y-102634515D01*
X111149359Y-102533306D01*
X111150141Y-102532229D01*
X111174065Y-102502778D01*
X111196885Y-102467835D01*
X111284474Y-102347173D01*
X111359751Y-102218454D01*
X111382568Y-102183520D01*
X111399914Y-102149780D01*
X111467934Y-102033473D01*
X111536638Y-101883855D01*
X111556923Y-101844404D01*
X111569001Y-101813378D01*
X111619586Y-101703220D01*
X111678794Y-101531353D01*
X111695257Y-101489069D01*
X111702644Y-101462122D01*
X111737954Y-101359629D01*
X111737954Y-101359628D01*
X111737956Y-101359623D01*
X111764527Y-101247681D01*
X111784427Y-101163849D01*
X111796086Y-101121329D01*
X111799685Y-101099569D01*
X111821886Y-101006046D01*
X111851911Y-100783905D01*
X111858327Y-100745131D01*
X111859275Y-100729419D01*
X111870563Y-100645912D01*
X111879564Y-100393460D01*
X111881313Y-100364512D01*
X111880919Y-100355443D01*
X111883512Y-100282735D01*
X111865189Y-99992591D01*
X111864798Y-99983557D01*
X111864485Y-99981447D01*
X111860608Y-99920049D01*
X111802073Y-99561386D01*
X111708477Y-99210238D01*
X111580731Y-98870023D01*
X111541365Y-98790095D01*
X111520850Y-98748442D01*
X111515912Y-98729972D01*
X111515155Y-98718328D01*
X111522783Y-98688732D01*
X111523554Y-98687528D01*
X111531078Y-98678420D01*
X111591632Y-98620935D01*
X113099500Y-98620935D01*
X113099500Y-98779063D01*
X113140309Y-98931362D01*
X113140412Y-98931761D01*
X113140422Y-98931785D01*
X113214817Y-99060641D01*
X113219475Y-99068709D01*
X113219478Y-99068713D01*
X113219480Y-99068716D01*
X113331284Y-99180520D01*
X113331287Y-99180521D01*
X113331290Y-99180524D01*
X113331315Y-99180538D01*
X113331919Y-99180912D01*
X113331919Y-99180913D01*
X113334542Y-99182533D01*
X113335573Y-99182997D01*
X113468213Y-99259576D01*
X113468215Y-99259576D01*
X113468216Y-99259577D01*
X113503947Y-99269151D01*
X113617843Y-99299669D01*
X113620289Y-99300500D01*
X113779060Y-99300500D01*
X113785854Y-99300500D01*
X113791740Y-99297101D01*
X113931784Y-99259577D01*
X113948667Y-99249830D01*
X114062671Y-99184010D01*
X114068716Y-99180520D01*
X114180520Y-99068716D01*
X114229426Y-98984008D01*
X114259576Y-98931786D01*
X114259576Y-98931785D01*
X114259577Y-98931784D01*
X114297101Y-98791740D01*
X114300500Y-98785854D01*
X114300500Y-98620288D01*
X114299666Y-98617831D01*
X114288145Y-98574834D01*
X114259577Y-98468214D01*
X114229331Y-98415827D01*
X114180524Y-98331290D01*
X114180522Y-98331288D01*
X114180520Y-98331284D01*
X114068715Y-98219479D01*
X114068701Y-98219470D01*
X113931785Y-98140422D01*
X113931761Y-98140412D01*
X113931362Y-98140309D01*
X113779063Y-98099500D01*
X113779060Y-98099500D01*
X113779057Y-98099500D01*
X113620943Y-98099500D01*
X113620940Y-98099500D01*
X113620937Y-98099500D01*
X113468636Y-98140309D01*
X113468238Y-98140412D01*
X113468213Y-98140422D01*
X113331292Y-98219473D01*
X113331275Y-98219486D01*
X113219486Y-98331275D01*
X113219473Y-98331292D01*
X113140422Y-98468213D01*
X113140412Y-98468238D01*
X113140309Y-98468636D01*
X113099500Y-98620935D01*
X111591632Y-98620935D01*
X111820987Y-98403202D01*
X111821678Y-98402560D01*
X111822378Y-98401921D01*
X111823129Y-98401252D01*
X111823992Y-98400499D01*
X111905835Y-98329070D01*
X111906221Y-98328738D01*
X111906842Y-98328211D01*
X111907085Y-98328007D01*
X112208915Y-98078428D01*
X112209787Y-98077724D01*
X112210746Y-98076971D01*
X112211614Y-98076306D01*
X112280400Y-98024937D01*
X112280911Y-98024562D01*
X112281205Y-98024348D01*
X112620700Y-97780733D01*
X112621819Y-97779955D01*
X112622875Y-97779242D01*
X112623965Y-97778527D01*
X112638194Y-97769498D01*
X112638312Y-97769424D01*
X113037099Y-97522761D01*
X113038497Y-97521929D01*
X113039955Y-97521095D01*
X113041353Y-97520325D01*
X113467927Y-97295285D01*
X113469324Y-97294579D01*
X113470887Y-97293822D01*
X113472291Y-97293171D01*
X113913249Y-97097858D01*
X113914727Y-97097233D01*
X113916310Y-97096597D01*
X113917766Y-97096039D01*
X114358446Y-96935946D01*
X114358833Y-96935807D01*
X114374515Y-96930313D01*
X114375769Y-96929893D01*
X114377085Y-96929474D01*
X114378277Y-96929113D01*
X114780235Y-96813542D01*
X114780887Y-96813360D01*
X114781009Y-96813327D01*
X114863756Y-96791231D01*
X114864838Y-96790957D01*
X114865830Y-96790718D01*
X114866034Y-96790670D01*
X114867148Y-96790416D01*
X115250175Y-96708183D01*
X115250565Y-96708102D01*
X115251343Y-96707946D01*
X115251763Y-96707864D01*
X115359453Y-96687728D01*
X115360421Y-96687558D01*
X115361430Y-96687391D01*
X115362411Y-96687238D01*
X115794943Y-96624965D01*
X115798400Y-96624593D01*
X115801917Y-96624342D01*
X115805390Y-96624219D01*
X143452176Y-96624219D01*
X143470928Y-96627949D01*
G37*
G04 #@! TD.AperFunction*
G04 #@! TD*
M02*
